<svg width="227" height="107" viewBox="0 0 227 107" fill="none" xmlns="http://www.w3.org/2000/svg">
<path d="M51.7781 84.968C49.6661 84.968 47.6501 84.616 45.7301 83.912C43.8101 83.208 42.2421 82.088 41.0261 80.552C39.8101 79.016 39.2021 77.064 39.2021 74.696C39.2021 74.12 39.3301 73.608 39.5861 73.16C39.9061 72.648 40.1941 72.392 40.4501 72.392C40.9621 72.392 41.2181 73.16 41.2181 74.696C41.2181 76.872 42.1461 78.568 44.0021 79.784C45.4741 80.744 47.4581 81.224 49.9541 81.224C52.4501 81.224 55.0421 80.776 57.7301 79.88C60.4181 78.984 62.9781 77.704 65.4101 76.04C68.2901 74.12 71.4901 71.368 75.0101 67.784C78.5941 64.136 82.3061 60.168 86.1461 55.88C83.0741 55.56 80.0021 55.208 76.9301 54.824C73.9221 54.44 70.8821 54.248 67.8101 54.248C65.7621 54.248 63.7141 54.472 61.6661 54.92C59.6181 55.304 57.7621 56.072 56.0981 57.224C54.4341 58.376 53.1861 60.072 52.3541 62.312C52.2901 62.568 52.1941 62.856 52.0661 63.176C52.0021 63.496 51.9701 63.816 51.9701 64.136C51.9701 64.776 52.1301 65.352 52.4501 65.864C52.5781 66.248 52.6421 66.472 52.6421 66.536C52.6421 67.112 52.3861 67.4 51.8741 67.4C51.4261 67.4 51.0741 67.176 50.8181 66.728C50.1781 65.576 49.8581 64.104 49.8581 62.312C49.8581 58.92 50.4661 56.328 51.6821 54.536C52.9621 52.744 54.6581 51.528 56.7701 50.888C58.8821 50.248 61.1541 49.928 63.5861 49.928C64.6741 49.928 65.7941 49.992 66.9461 50.12C68.1621 50.184 69.3461 50.28 70.4981 50.408C73.3141 50.664 76.2261 51.112 79.2341 51.752C82.2421 52.328 85.2501 52.936 88.2581 53.576C91.5861 49.672 94.8501 45.736 98.0501 41.768C101.314 37.8 104.354 34.056 107.17 30.536C109.986 26.952 112.386 23.88 114.37 21.32C114.434 21.128 114.562 21 114.754 20.936C114.882 20.808 114.978 20.744 115.042 20.744C115.746 20.36 116.642 20.04 117.73 19.784C118.818 19.464 119.554 19.304 119.938 19.304C120.578 19.304 120.898 19.656 120.898 20.36C120.898 20.552 120.738 20.904 120.418 21.416C117.218 26.856 114.466 32.424 112.162 38.12C109.922 43.816 107.938 49.672 106.21 55.688L106.018 56.36C106.402 56.36 106.786 56.392 107.17 56.456C107.618 56.456 108.002 56.456 108.322 56.456C111.074 56.648 113.41 56.36 115.33 55.592C116.738 55.08 117.698 54.344 118.21 53.384C118.402 53.128 118.562 53 118.69 53C119.01 53 119.234 53.192 119.362 53.576C119.49 53.896 119.458 54.216 119.266 54.536C118.562 55.752 117.314 56.648 115.522 57.224C114.498 57.672 113.314 57.96 111.97 58.088C110.69 58.216 109.346 58.248 107.938 58.184H107.362L106.21 58.088H105.634C104.674 61.608 104.002 65.256 103.618 69.032C103.554 69.352 103.522 69.672 103.522 69.992C103.522 70.248 103.522 70.536 103.522 70.856C103.522 74.504 104.514 76.328 106.498 76.328C107.778 76.328 109.282 75.752 111.01 74.6C112.802 73.448 114.594 72.04 116.386 70.376C118.242 68.712 119.906 67.08 121.378 65.48C122.85 63.816 123.938 62.504 124.642 61.544C124.77 61.416 124.962 61.352 125.218 61.352C125.858 61.352 126.05 61.704 125.794 62.408C125.666 62.6 125.122 63.368 124.162 64.712C123.202 65.992 121.89 67.56 120.226 69.416C118.562 71.208 116.61 73 114.37 74.792C112.578 76.2 110.786 77.096 108.994 77.48C107.266 77.928 105.954 78.152 105.058 78.152C103.266 78.152 101.826 77.352 100.738 75.752C99.7141 74.088 99.2021 71.976 99.2021 69.416C99.2021 67.56 99.3941 65.64 99.7781 63.656C100.162 61.672 100.61 59.688 101.122 57.704C99.2661 57.512 97.3781 57.32 95.4581 57.128C93.5381 56.872 91.6181 56.616 89.6981 56.36C85.8581 61.032 82.0181 65.416 78.1781 69.512C74.4021 73.544 70.8501 76.808 67.5221 79.304C65.0261 81.096 62.4341 82.472 59.7461 83.432C57.1221 84.456 54.4661 84.968 51.7781 84.968ZM101.506 55.88C102.658 51.4 104.002 46.92 105.538 42.44C107.138 37.896 108.706 33.768 110.242 30.056L110.722 28.904C107.97 32.744 104.93 36.84 101.602 41.192C98.3381 45.544 95.0101 49.864 91.6181 54.152C93.2821 54.472 94.9461 54.792 96.6101 55.112C98.2741 55.368 99.9061 55.624 101.506 55.88ZM131.619 77C130.979 77 130.275 76.936 129.507 76.808C128.803 76.68 128.451 76.232 128.451 75.464C128.451 75.144 128.803 74.664 129.507 74.024C130.211 73.32 130.979 72.68 131.811 72.104C132.643 71.464 133.251 71.144 133.635 71.144C134.083 71.144 134.275 71.368 134.211 71.816C134.211 72.264 134.211 72.744 134.211 73.256C134.211 73.512 134.051 73.96 133.731 74.6C133.411 75.176 133.059 75.72 132.675 76.232C132.291 76.744 131.939 77 131.619 77ZM205.603 94.472C204.963 94.472 204.323 94.44 203.683 94.376C203.043 94.312 202.371 94.216 201.667 94.088C197.315 93.256 193.379 91.816 189.859 89.768C186.339 87.72 183.171 85.32 180.355 82.568C177.603 79.88 175.075 77.032 172.771 74.024C170.531 71.016 168.483 68.136 166.627 65.384C164.771 62.568 163.043 60.104 161.443 57.992C161.315 57.672 161.155 57.576 160.963 57.704C160.835 57.832 160.771 57.896 160.771 57.896C159.363 60.584 158.051 63.112 156.835 65.48C155.683 67.784 154.819 69.64 154.243 71.048C153.731 72.456 153.475 73.448 153.475 74.024C153.475 74.92 153.827 75.368 154.531 75.368C155.427 75.368 156.387 74.76 157.411 73.544C158.115 72.712 158.755 71.944 159.331 71.24C159.971 70.472 160.515 70.152 160.963 70.28C161.027 70.344 161.059 70.44 161.059 70.568C161.059 70.888 160.835 71.336 160.387 71.912C159.939 72.424 159.683 72.712 159.619 72.776C159.171 73.416 158.563 74.28 157.795 75.368C157.091 76.456 156.323 77.416 155.491 78.248C154.723 79.144 153.891 79.592 152.995 79.592C152.867 79.592 152.483 79.528 151.843 79.4C151.267 79.272 150.691 79.112 150.115 78.92C149.603 78.728 149.315 78.504 149.251 78.248C149.123 77.032 149.411 75.336 150.115 73.16C150.883 70.92 151.907 68.456 153.187 65.768C154.467 63.08 155.779 60.456 157.123 57.896C156.099 57.64 155.363 57.416 154.915 57.224C154.275 56.776 153.955 56.168 153.955 55.4C153.955 54.76 154.211 54.184 154.723 53.672C155.235 53.16 156.003 52.904 157.027 52.904C157.347 52.904 157.731 52.968 158.179 53.096C158.627 53.224 158.979 53.448 159.235 53.768C160.323 51.848 161.283 50.088 162.115 48.488C163.011 46.888 163.651 45.64 164.035 44.744C164.419 44.04 164.675 43.464 164.803 43.016C164.931 42.504 164.995 42.12 164.995 41.864C164.995 41.48 164.931 41.16 164.803 40.904C164.931 40.136 165.379 39.112 166.147 37.832C166.979 36.552 168.003 35.272 169.219 33.992C170.435 32.712 171.747 31.656 173.155 30.824C174.563 29.928 175.875 29.48 177.091 29.48C177.475 29.48 178.051 29.608 178.819 29.864C179.651 30.056 180.419 30.376 181.123 30.824C181.891 31.272 182.371 31.912 182.563 32.744C182.627 32.936 182.659 33.128 182.659 33.32C182.659 33.512 182.595 33.608 182.467 33.608C182.339 33.608 182.147 33.576 181.891 33.512C181.699 33.384 181.539 33.32 181.411 33.32C179.619 33.32 177.603 34.408 175.363 36.584C173.187 38.696 170.947 41.416 168.643 44.744C166.403 48.072 164.291 51.528 162.307 55.112C162.627 55.176 162.979 55.272 163.363 55.4C163.811 55.464 164.323 55.496 164.899 55.496C165.155 55.496 165.379 55.496 165.571 55.496C165.827 55.496 166.083 55.464 166.339 55.4C170.435 54.952 174.595 54.152 178.819 53C183.107 51.848 187.107 50.344 190.819 48.488C194.531 46.632 197.603 44.456 200.035 41.96C202.275 39.592 203.395 37.16 203.395 34.664C203.395 32.808 202.691 31.08 201.283 29.48C199.875 27.88 197.667 26.664 194.659 25.832C192.867 25.32 190.819 24.936 188.515 24.68C186.275 24.424 183.843 24.296 181.219 24.296C177.123 24.296 172.899 24.648 168.547 25.352C164.259 26.056 160.227 27.144 156.451 28.616C152.675 30.024 149.507 31.816 146.947 33.992C144.387 36.168 142.851 38.76 142.339 41.768C142.147 43.304 142.435 44.52 143.203 45.416C143.971 46.312 144.899 47.016 145.987 47.528C147.139 47.976 148.035 48.392 148.675 48.776C149.123 49.16 149.347 49.48 149.347 49.736C149.347 50.184 148.931 50.344 148.099 50.216C147.203 50.024 146.083 49.576 144.739 48.872C143.459 48.168 142.307 47.208 141.283 45.992C140.323 44.712 139.843 43.24 139.843 41.576C139.843 41.32 139.843 41.064 139.843 40.808C139.907 40.552 139.971 40.296 140.035 40.04C140.035 39.976 140.003 39.784 139.939 39.464C139.939 39.08 139.939 38.76 139.939 38.504C140.323 36.52 141.283 34.664 142.819 32.936C144.419 31.144 146.211 29.576 148.195 28.232C150.243 26.824 152.131 25.704 153.859 24.872C156.867 23.4 160.483 22.248 164.707 21.416C168.931 20.52 173.347 20.072 177.955 20.072C180.771 20.072 183.555 20.264 186.307 20.648C189.123 21.032 191.843 21.64 194.467 22.472C198.115 23.688 200.931 25.576 202.915 28.136C204.963 30.632 205.891 33.256 205.699 36.008C205.507 38.632 204.579 41 202.915 43.112C201.315 45.224 199.235 47.08 196.675 48.68C194.179 50.216 191.395 51.56 188.323 52.712C185.315 53.8 182.275 54.696 179.203 55.4C176.707 55.912 174.083 56.328 171.331 56.648C168.579 56.968 165.987 57.192 163.555 57.32C166.307 60.712 169.027 64.136 171.715 67.592C174.467 70.984 177.379 74.184 180.451 77.192C183.587 80.2 187.011 82.76 190.723 84.872C194.435 87.048 198.627 88.584 203.299 89.48C204.259 89.672 205.251 89.768 206.275 89.768C207.939 89.768 209.571 89.512 211.171 89C212.835 88.488 214.211 87.688 215.299 86.6C216.387 85.512 216.931 84.072 216.931 82.28C216.931 81.96 216.899 81.64 216.835 81.32C216.835 81 216.803 80.68 216.739 80.36C216.739 80.232 216.707 80.136 216.643 80.072C216.643 80.008 216.643 79.944 216.643 79.88C216.643 79.304 216.867 79.016 217.315 79.016C217.955 79.016 218.371 79.496 218.563 80.456C218.755 81.416 218.851 82.312 218.851 83.144C218.851 84.104 218.755 85 218.563 85.832C218.435 86.664 218.243 87.432 217.987 88.136C217.411 89.928 215.939 91.432 213.571 92.648C211.267 93.864 208.611 94.472 205.603 94.472Z" fill="#017D8A"/>
<path d="M110.397 94.2735C111.666 94.2735 112.669 94.4509 113.407 94.8055C114.153 95.1509 114.718 95.5382 115.101 95.9675C115.409 96.3222 115.661 96.7329 115.857 97.1995C116.053 97.6569 116.151 98.2075 116.151 98.8515C116.151 99.3275 116.043 99.8269 115.829 100.35C115.614 100.863 115.334 101.278 114.989 101.596C114.625 101.941 114.279 102.221 113.953 102.436C113.635 102.65 113.201 102.828 112.651 102.968C112.109 103.098 111.419 103.164 110.579 103.164C109.944 103.164 109.37 103.094 108.857 102.954C108.343 102.804 108.087 102.557 108.087 102.212C108.087 102.072 108.147 101.964 108.269 101.89C108.399 101.806 108.539 101.764 108.689 101.764C108.773 101.764 108.829 101.768 108.857 101.778C108.922 101.162 108.955 100.508 108.955 99.8175C108.955 99.0429 108.936 98.4035 108.899 97.8995C108.861 97.3862 108.81 96.8775 108.745 96.3735C108.735 96.3082 108.712 96.1262 108.675 95.8275C108.647 95.5289 108.633 95.2255 108.633 94.9175C108.633 94.7215 108.731 94.5582 108.927 94.4275C109.123 94.2875 109.323 94.2175 109.529 94.2175C109.65 94.2175 109.813 94.2269 110.019 94.2455C110.187 94.2642 110.313 94.2735 110.397 94.2735ZM110.215 101.848C110.439 101.885 110.733 101.904 111.097 101.904C111.713 101.904 112.296 101.778 112.847 101.526C113.397 101.264 113.841 100.905 114.177 100.448C114.513 99.9809 114.681 99.4442 114.681 98.8375C114.681 98.2029 114.569 97.6615 114.345 97.2135C114.121 96.7655 113.775 96.3969 113.309 96.1075C112.963 95.8929 112.539 95.7389 112.035 95.6455C111.531 95.5429 110.924 95.4915 110.215 95.4915C110.215 95.7155 110.229 95.9955 110.257 96.3315C110.257 96.4435 110.266 96.6395 110.285 96.9195C110.341 98.0022 110.369 98.8749 110.369 99.5375C110.369 100.499 110.317 101.269 110.215 101.848ZM117.286 100.182C117.286 99.8269 117.352 99.4722 117.482 99.1175C117.613 98.7535 117.786 98.4222 118 98.1235C118.215 97.8249 118.556 97.5822 119.022 97.3955C119.489 97.1995 119.904 97.1015 120.268 97.1015C120.642 97.1015 121.02 97.1529 121.402 97.2555C121.794 97.3582 122.065 97.5169 122.214 97.7315C122.56 98.2169 122.732 98.6929 122.732 99.1595C122.732 99.4115 122.676 99.6262 122.564 99.8035C122.462 99.9809 122.312 100.172 122.116 100.378C121.958 100.546 121.706 100.658 121.36 100.714C121.024 100.77 120.688 100.798 120.352 100.798C120.138 100.798 119.876 100.779 119.568 100.742C119.26 100.695 118.962 100.639 118.672 100.574C118.691 100.76 118.738 100.942 118.812 101.12C118.887 101.297 118.976 101.432 119.078 101.526C119.265 101.703 119.456 101.815 119.652 101.862C119.858 101.908 120.119 101.932 120.436 101.932C120.772 101.932 121.085 101.876 121.374 101.764C121.608 101.68 121.799 101.638 121.948 101.638C122.126 101.638 122.261 101.694 122.354 101.806C122.448 101.908 122.494 102.044 122.494 102.212C122.494 102.445 122.359 102.636 122.088 102.786C121.818 102.935 121.505 103.047 121.15 103.122C120.805 103.187 120.525 103.22 120.31 103.22C119.872 103.22 119.447 103.14 119.036 102.982C118.626 102.823 118.285 102.599 118.014 102.31C117.79 102.048 117.613 101.736 117.482 101.372C117.352 100.998 117.286 100.602 117.286 100.182ZM120.338 98.2915C120.133 98.2915 119.928 98.3335 119.722 98.4175C119.517 98.4922 119.349 98.5995 119.218 98.7395C119.05 98.9169 118.934 99.0615 118.868 99.1735C118.812 99.2762 118.775 99.4209 118.756 99.6075C118.99 99.6822 119.475 99.7195 120.212 99.7195C120.614 99.7195 120.922 99.6589 121.136 99.5375C121.36 99.4162 121.472 99.2575 121.472 99.0615C121.472 98.8655 121.351 98.6882 121.108 98.5295C120.866 98.3709 120.609 98.2915 120.338 98.2915ZM127.99 99.9995C128.065 100.046 128.209 100.135 128.424 100.266C128.648 100.387 128.797 100.532 128.872 100.7C128.947 100.868 128.984 101.101 128.984 101.4C128.984 101.736 128.886 102.034 128.69 102.296C128.494 102.548 128.242 102.744 127.934 102.884C127.71 102.986 127.435 103.066 127.108 103.122C126.791 103.178 126.539 103.206 126.352 103.206C126.165 103.206 125.923 103.178 125.624 103.122C125.335 103.066 125.134 103.014 125.022 102.968C124.733 102.8 124.481 102.594 124.266 102.352C124.061 102.109 123.958 101.862 123.958 101.61C123.958 101.423 124.019 101.278 124.14 101.176C124.261 101.064 124.42 101.008 124.616 101.008C124.709 101.008 124.807 101.045 124.91 101.12C125.013 101.185 125.083 101.255 125.12 101.33C125.223 101.572 125.395 101.754 125.638 101.876C125.881 101.997 126.128 102.058 126.38 102.058C126.707 102.058 127.01 102.006 127.29 101.904C127.57 101.792 127.71 101.642 127.71 101.456C127.71 101.372 127.687 101.306 127.64 101.26C127.603 101.204 127.547 101.148 127.472 101.092C127.341 100.998 127.145 100.924 126.884 100.868C126.623 100.802 126.455 100.76 126.38 100.742C125.997 100.658 125.624 100.532 125.26 100.364C124.896 100.186 124.607 99.9762 124.392 99.7335C124.177 99.4909 124.07 99.1782 124.07 98.7955C124.07 98.5435 124.163 98.2822 124.35 98.0115C124.537 97.7315 124.747 97.5355 124.98 97.4235C125.148 97.3582 125.428 97.2882 125.82 97.2135C126.221 97.1389 126.492 97.1015 126.632 97.1015C126.847 97.1015 127.08 97.1249 127.332 97.1715C127.584 97.2089 127.775 97.2742 127.906 97.3675C128.158 97.5169 128.363 97.6755 128.522 97.8435C128.681 98.0022 128.76 98.1842 128.76 98.3895C128.76 98.4922 128.737 98.6042 128.69 98.7255C128.643 98.8375 128.587 98.9075 128.522 98.9355C128.382 99.0009 128.219 99.0335 128.032 99.0335C127.948 99.0335 127.878 99.0102 127.822 98.9635C127.775 98.9169 127.71 98.8422 127.626 98.7395C127.523 98.5809 127.425 98.4875 127.332 98.4595C127.22 98.4315 127.057 98.3989 126.842 98.3615C126.627 98.3149 126.483 98.2915 126.408 98.2915C126.193 98.2915 125.969 98.3522 125.736 98.4735C125.512 98.5949 125.4 98.7349 125.4 98.8935C125.4 98.9775 125.433 99.0429 125.498 99.0895C125.573 99.1362 125.647 99.1782 125.722 99.2155C125.806 99.2529 125.862 99.2762 125.89 99.2855C126.086 99.3789 126.301 99.4582 126.534 99.5235C126.777 99.5889 126.926 99.6309 126.982 99.6495C127.486 99.7709 127.822 99.8875 127.99 99.9995ZM131.018 94.1615C131.345 94.1895 131.63 94.2782 131.872 94.4275C132.115 94.5675 132.236 94.7822 132.236 95.0715C132.236 95.2862 132.134 95.4589 131.928 95.5895C131.732 95.7109 131.494 95.7715 131.214 95.7715C130.944 95.7715 130.757 95.7015 130.654 95.5615C130.552 95.4215 130.5 95.2769 130.5 95.1275C130.5 94.8475 130.528 94.6142 130.584 94.4275C130.65 94.2409 130.794 94.1522 131.018 94.1615ZM132.138 100.364V100.77C132.138 101.134 132.148 101.479 132.166 101.806C132.194 102.123 132.227 102.445 132.264 102.772C132.264 102.884 132.199 102.986 132.068 103.08C131.938 103.164 131.816 103.206 131.704 103.206C131.527 103.206 131.345 103.173 131.158 103.108C130.981 103.033 130.874 102.944 130.836 102.842C130.78 102.543 130.752 102.277 130.752 102.044C130.752 101.278 130.729 100.42 130.682 99.4675C130.645 98.6275 130.626 98.0395 130.626 97.7035C130.626 97.5355 130.71 97.3909 130.878 97.2695C131.046 97.1482 131.224 97.0875 131.41 97.0875C131.681 97.0875 131.868 97.1482 131.97 97.2695C132.082 97.3909 132.138 97.5822 132.138 97.8435V100.364ZM139.263 99.6355C139.263 100.065 139.155 100.429 138.941 100.728C138.726 101.017 138.441 101.274 138.087 101.498C137.601 101.759 137.037 101.894 136.393 101.904C136.355 102.016 136.337 102.132 136.337 102.254C136.337 102.366 136.397 102.45 136.519 102.506C136.649 102.552 136.878 102.59 137.205 102.618C137.475 102.636 137.779 102.697 138.115 102.8C138.46 102.893 138.731 103 138.927 103.122C139.169 103.299 139.337 103.49 139.431 103.696C139.533 103.901 139.585 104.158 139.585 104.466C139.585 104.867 139.398 105.203 139.025 105.474C138.661 105.754 138.231 105.959 137.737 106.09C137.242 106.22 136.808 106.286 136.435 106.286C135.987 106.286 135.604 106.23 135.287 106.118C134.979 106.015 134.685 105.87 134.405 105.684C134.209 105.544 134.055 105.366 133.943 105.152C133.831 104.937 133.775 104.713 133.775 104.48C133.775 104.246 133.849 104.022 133.999 103.808C134.157 103.593 134.349 103.406 134.573 103.248C134.797 103.098 135.007 102.996 135.203 102.94C135.128 102.846 135.072 102.767 135.035 102.702C135.007 102.627 134.993 102.543 134.993 102.45C134.993 102.132 135.072 101.866 135.231 101.652C134.783 101.502 134.428 101.236 134.167 100.854C133.915 100.471 133.789 100.023 133.789 99.5095C133.789 99.1735 133.868 98.8702 134.027 98.5995C134.185 98.3195 134.405 98.0535 134.685 97.8015C135.161 97.3722 135.819 97.1575 136.659 97.1575C136.771 97.1575 136.925 97.1762 137.121 97.2135C137.317 97.2509 137.508 97.3022 137.695 97.3675C137.993 97.2369 138.343 97.1015 138.745 96.9615C139.146 96.8215 139.417 96.7515 139.557 96.7515C139.771 96.7515 139.93 96.7889 140.033 96.8635C140.145 96.9289 140.201 97.0782 140.201 97.3115C140.201 97.5262 140.075 97.6802 139.823 97.7735C139.58 97.8669 139.211 97.9555 138.717 98.0395C139.081 98.4782 139.263 99.0102 139.263 99.6355ZM136.351 100.756C136.892 100.756 137.284 100.644 137.527 100.42C137.779 100.196 137.905 99.8595 137.905 99.4115C137.905 98.6742 137.471 98.3055 136.603 98.3055C136.267 98.3055 136.001 98.3429 135.805 98.4175C135.618 98.4922 135.464 98.6182 135.343 98.7955C135.175 99.0195 135.091 99.3229 135.091 99.7055C135.091 100.004 135.212 100.256 135.455 100.462C135.707 100.658 136.005 100.756 136.351 100.756ZM135.091 104.578C135.091 104.736 135.235 104.872 135.525 104.984C135.823 105.105 136.141 105.166 136.477 105.166C136.85 105.166 137.233 105.096 137.625 104.956C138.026 104.825 138.227 104.648 138.227 104.424C138.227 104.097 137.937 103.887 137.359 103.794C137.153 103.756 136.855 103.686 136.463 103.584C136.416 103.574 136.36 103.56 136.295 103.542C136.239 103.523 136.178 103.504 136.113 103.486C135.907 103.56 135.683 103.714 135.441 103.948C135.207 104.19 135.091 104.4 135.091 104.578ZM147.38 102.072C147.427 102.09 147.501 102.114 147.604 102.142C147.707 102.17 147.781 102.198 147.828 102.226C147.875 102.254 147.898 102.296 147.898 102.352C147.907 102.576 147.823 102.762 147.646 102.912C147.478 103.052 147.277 103.122 147.044 103.122C146.68 103.122 146.395 103.024 146.19 102.828C145.985 102.632 145.835 102.333 145.742 101.932C145.705 101.773 145.686 101.554 145.686 101.274C145.686 101.115 145.695 100.858 145.714 100.504C145.733 100.13 145.742 99.8315 145.742 99.6075C145.742 99.2062 145.7 98.9029 145.616 98.6975C145.532 98.4829 145.331 98.3755 145.014 98.3755C144.687 98.3755 144.393 98.5062 144.132 98.7675C143.88 99.0289 143.665 99.4209 143.488 99.9435C143.245 100.672 143.11 101.638 143.082 102.842C143.082 102.907 143.012 102.986 142.872 103.08C142.741 103.164 142.583 103.206 142.396 103.206C142.051 103.206 141.836 103.024 141.752 102.66L141.738 102.422C141.738 102.338 141.747 102.24 141.766 102.128C141.878 101.474 141.934 100.905 141.934 100.42C141.934 100.205 141.929 100.037 141.92 99.9155L141.906 99.2575C141.906 99.0335 141.85 98.8189 141.738 98.6135C141.626 98.3989 141.495 98.2915 141.346 98.2915C141.299 98.2915 141.234 98.3102 141.15 98.3475C141.066 98.3755 140.996 98.3895 140.94 98.3895C140.847 98.3895 140.744 98.3429 140.632 98.2495C140.529 98.1562 140.478 98.0582 140.478 97.9555C140.478 97.7595 140.543 97.6009 140.674 97.4795C140.814 97.3675 140.949 97.2789 141.08 97.2135C141.22 97.1482 141.379 97.1155 141.556 97.1155C141.705 97.1155 141.827 97.1295 141.92 97.1575C142.013 97.1855 142.139 97.2462 142.298 97.3395C142.391 97.3862 142.499 97.5169 142.62 97.7315C142.741 97.9462 142.835 98.2495 142.9 98.6415C143.087 98.2962 143.399 97.9322 143.838 97.5495C144.165 97.2509 144.636 97.1015 145.252 97.1015C145.812 97.1015 146.255 97.3069 146.582 97.7175C146.909 98.1189 147.072 98.6742 147.072 99.3835C147.072 99.5235 147.063 99.7522 147.044 100.07C147.016 100.322 147.002 100.588 147.002 100.868C147.002 101.521 147.128 101.922 147.38 102.072ZM152.859 99.9995C152.934 100.046 153.079 100.135 153.293 100.266C153.517 100.387 153.667 100.532 153.741 100.7C153.816 100.868 153.853 101.101 153.853 101.4C153.853 101.736 153.755 102.034 153.559 102.296C153.363 102.548 153.111 102.744 152.803 102.884C152.579 102.986 152.304 103.066 151.977 103.122C151.66 103.178 151.408 103.206 151.221 103.206C151.035 103.206 150.792 103.178 150.493 103.122C150.204 103.066 150.003 103.014 149.891 102.968C149.602 102.8 149.35 102.594 149.135 102.352C148.93 102.109 148.827 101.862 148.827 101.61C148.827 101.423 148.888 101.278 149.009 101.176C149.131 101.064 149.289 101.008 149.485 101.008C149.579 101.008 149.677 101.045 149.779 101.12C149.882 101.185 149.952 101.255 149.989 101.33C150.092 101.572 150.265 101.754 150.507 101.876C150.75 101.997 150.997 102.058 151.249 102.058C151.576 102.058 151.879 102.006 152.159 101.904C152.439 101.792 152.579 101.642 152.579 101.456C152.579 101.372 152.556 101.306 152.509 101.26C152.472 101.204 152.416 101.148 152.341 101.092C152.211 100.998 152.015 100.924 151.753 100.868C151.492 100.802 151.324 100.76 151.249 100.742C150.867 100.658 150.493 100.532 150.129 100.364C149.765 100.186 149.476 99.9762 149.261 99.7335C149.047 99.4909 148.939 99.1782 148.939 98.7955C148.939 98.5435 149.033 98.2822 149.219 98.0115C149.406 97.7315 149.616 97.5355 149.849 97.4235C150.017 97.3582 150.297 97.2882 150.689 97.2135C151.091 97.1389 151.361 97.1015 151.501 97.1015C151.716 97.1015 151.949 97.1249 152.201 97.1715C152.453 97.2089 152.645 97.2742 152.775 97.3675C153.027 97.5169 153.233 97.6755 153.391 97.8435C153.55 98.0022 153.629 98.1842 153.629 98.3895C153.629 98.4922 153.606 98.6042 153.559 98.7255C153.513 98.8375 153.457 98.9075 153.391 98.9355C153.251 99.0009 153.088 99.0335 152.901 99.0335C152.817 99.0335 152.747 99.0102 152.691 98.9635C152.645 98.9169 152.579 98.8422 152.495 98.7395C152.393 98.5809 152.295 98.4875 152.201 98.4595C152.089 98.4315 151.926 98.3989 151.711 98.3615C151.497 98.3149 151.352 98.2915 151.277 98.2915C151.063 98.2915 150.839 98.3522 150.605 98.4735C150.381 98.5949 150.269 98.7349 150.269 98.8935C150.269 98.9775 150.302 99.0429 150.367 99.0895C150.442 99.1362 150.517 99.1782 150.591 99.2155C150.675 99.2529 150.731 99.2762 150.759 99.2855C150.955 99.3789 151.17 99.4582 151.403 99.5235C151.646 99.5889 151.795 99.6309 151.851 99.6495C152.355 99.7709 152.691 99.8875 152.859 99.9995Z" fill="#017D8A"/>
</svg>
