<svg width="1440" height="146" viewBox="0 0 1440 146" fill="none" xmlns="http://www.w3.org/2000/svg">
<path fill-rule="evenodd" clip-rule="evenodd" d="M-264 0L-232.76 13.9048C-201.52 27.8095 -137.62 55.619 -75.14 52.1429C-11.24 48.6667 51.24 13.9048 115.14 6.95238C177.62 0 241.52 20.8571 304 41.7143C366.48 62.5714 430.38 83.4286 492.86 86.9048C556.76 90.381 619.24 76.4762 683.14 55.619C745.62 34.7619 809.52 6.95238 872 6.95238C934.48 6.95238 998.38 34.7619 1060.86 41.7143C1124.76 48.6667 1187.24 34.7619 1251.14 38.2381C1313.62 41.7143 1377.52 62.5714 1408.76 73L1440 83.4286V146H1408.76C1377.52 146 1313.62 146 1251.14 146C1187.24 146 1124.76 146 1060.86 146C998.38 146 934.48 146 872 146C809.52 146 745.62 146 683.14 146C619.24 146 556.76 146 492.86 146C430.38 146 366.48 146 304 146C241.52 146 177.62 146 115.14 146C51.24 146 -11.24 146 -75.14 146C-137.62 146 -201.52 146 -232.76 146H-264V0Z" fill="#00B5A9"/>
<path fill-rule="evenodd" clip-rule="evenodd" d="M-142 9L-111.475 22.9048C-80.95 36.8095 -18.5125 64.619 42.5375 61.1429C104.975 57.6667 166.025 22.9048 228.463 15.9524C289.513 9 351.95 29.8571 413 50.7143C474.05 71.5714 536.488 92.4286 597.538 95.9048C659.975 99.381 721.025 85.4762 783.463 64.619C844.513 43.7619 906.95 15.9524 968 15.9524C1029.05 15.9524 1091.49 43.7619 1152.54 50.7143C1214.98 57.6667 1276.03 43.7619 1338.46 47.2381C1399.51 50.7143 1461.95 71.5714 1492.48 82L1523 92.4286V155H1492.48C1461.95 155 1399.51 155 1338.46 155C1276.03 155 1214.98 155 1152.54 155C1091.49 155 1029.05 155 968 155C906.95 155 844.513 155 783.463 155C721.025 155 659.975 155 597.538 155C536.488 155 474.05 155 413 155C351.95 155 289.513 155 228.463 155C166.025 155 104.975 155 42.5375 155C-18.5125 155 -80.95 155 -111.475 155H-142V9Z" fill="#017D8A"/>
</svg>
