<svg width="94" height="98" viewBox="0 0 94 98" fill="none" xmlns="http://www.w3.org/2000/svg">
<rect width="94" height="97.3571" rx="37" fill="#0E0E0E"/>
<path d="M39.4023 42.432C38.9368 39.4598 37.9341 37.2217 36.3943 35.7177C34.8903 34.2137 32.885 33.4438 30.3783 33.408C28.5162 33.408 26.8869 33.8377 25.4903 34.6971C24.0937 35.5566 22.9299 36.7025 21.9989 38.1349C21.1036 39.5672 20.4232 41.1966 19.9577 43.0229C19.528 44.8491 19.3131 46.7291 19.3131 48.6629C19.3131 51.7425 19.7429 54.4819 20.6023 56.8811C21.4975 59.2446 22.7867 61.1067 24.4697 62.4674C26.1528 63.8282 28.1939 64.5086 30.5931 64.5086C32.8491 64.5086 35.0872 63.9356 37.3074 62.7897C39.5276 61.608 41.3897 59.9787 42.8937 57.9017L45.472 60.2651C43.7173 62.6644 41.8731 64.4907 39.9394 65.744C38.0057 66.9615 36.1078 67.7851 34.2457 68.2149C32.4194 68.6446 30.7722 68.8594 29.304 68.8594C26.5467 68.8594 24.04 68.376 21.784 67.4091C19.528 66.4065 17.5764 65.0457 15.9291 63.3269C14.3177 61.5722 13.0644 59.549 12.1691 57.2571C11.3097 54.9295 10.88 52.4229 10.88 49.7371C10.88 47.3021 11.2739 44.885 12.0617 42.4857C12.8495 40.0865 14.0133 37.92 15.5531 35.9863C17.1288 34.0168 19.0983 32.459 21.4617 31.3131C23.8251 30.1314 26.5646 29.5406 29.68 29.5406C31.0766 29.5406 32.5985 29.7733 34.2457 30.2389C35.9288 30.6686 37.5044 31.3131 38.9726 32.1726L38.7577 29.9166H42.8937V42.432H39.4023ZM76.3833 42.432C75.9178 39.4598 74.9151 37.2217 73.3753 35.7177C71.8713 34.2137 69.866 33.4438 67.3593 33.408C65.4972 33.408 63.8679 33.8377 62.4713 34.6971C61.0747 35.5566 59.9109 36.7025 58.9799 38.1349C58.0846 39.5672 57.4043 41.1966 56.9387 43.0229C56.509 44.8491 56.2942 46.7291 56.2942 48.6629C56.2942 51.7425 56.7239 54.4819 57.5833 56.8811C58.4786 59.2446 59.7677 61.1067 61.4507 62.4674C63.1338 63.8282 65.1749 64.5086 67.5742 64.5086C69.8302 64.5086 72.0683 63.9356 74.2885 62.7897C76.5086 61.608 78.3707 59.9787 79.8747 57.9017L82.453 60.2651C80.6984 62.6644 78.8542 64.4907 76.9205 65.744C74.9867 66.9615 73.0888 67.7851 71.2267 68.2149C69.4005 68.6446 67.7532 68.8594 66.285 68.8594C63.5277 68.8594 61.021 68.376 58.765 67.4091C56.509 66.4065 54.5574 65.0457 52.9102 63.3269C51.2987 61.5722 50.0454 59.549 49.1502 57.2571C48.2907 54.9295 47.861 52.4229 47.861 49.7371C47.861 47.3021 48.2549 44.885 49.0427 42.4857C49.8305 40.0865 50.9944 37.92 52.5342 35.9863C54.1098 34.0168 56.0793 32.459 58.4427 31.3131C60.8062 30.1314 63.5456 29.5406 66.661 29.5406C68.0576 29.5406 69.5795 29.7733 71.2267 30.2389C72.9098 30.6686 74.4854 31.3131 75.9536 32.1726L75.7387 29.9166H79.8747V42.432H76.3833Z" fill="#DAC5A7"/>
</svg>
