<svg width="34" height="34" viewBox="0 0 34 34" fill="none" xmlns="http://www.w3.org/2000/svg">
<g clip-path="url(#clip0_30_176)">
<path d="M10.3587 12.75H8.05804L4.95837 21.25H7.23496L7.86679 19.5132H10.55L11.1818 21.25H13.4584L10.3587 12.75ZM8.38387 18.0965L9.20837 15.8383L10.0329 18.0979L8.38387 18.0965ZM20.8874 12.75H15.929V21.25H18.054V18.4167H20.8874C21.1679 18.4219 21.4465 18.3704 21.7067 18.2655C21.9668 18.1605 22.2032 18.0042 22.4015 17.8058C22.5999 17.6075 22.7562 17.3711 22.8612 17.111C22.9661 16.8508 23.0176 16.5722 23.0124 16.2917V14.875C23.0176 14.5945 22.9661 14.3159 22.8612 14.0557C22.7562 13.7955 22.5999 13.5592 22.4015 13.3608C22.2032 13.1625 21.9668 13.0061 21.7067 12.9012C21.4465 12.7962 21.1679 12.7448 20.8874 12.75ZM20.8874 16.2917H18.054V14.875H20.8874V16.2917ZM25.5 12.75H27.625V21.25H25.5V12.75Z" fill="white"/>
<path d="M31.1667 8.50001V25.5H2.83333V8.50001H31.1667ZM31.1667 5.66667H2.83333C2.08189 5.66667 1.36122 5.96518 0.829864 6.49654C0.298511 7.02789 0 7.74856 0 8.50001L0 25.5C0 26.2515 0.298511 26.9721 0.829864 27.5035C1.36122 28.0348 2.08189 28.3333 2.83333 28.3333H31.1667C31.9181 28.3333 32.6388 28.0348 33.1701 27.5035C33.7015 26.9721 34 26.2515 34 25.5V8.50001C34 7.74856 33.7015 7.02789 33.1701 6.49654C32.6388 5.96518 31.9181 5.66667 31.1667 5.66667Z" fill="white"/>
</g>
<defs>
<clipPath id="clip0_30_176">
<rect width="34" height="34" fill="white"/>
</clipPath>
</defs>
</svg>
