<svg width="73" height="72" viewBox="0 0 73 72" fill="none" xmlns="http://www.w3.org/2000/svg">
<g clip-path="url(#clip0_19_92)">
<path d="M15.6214 0C11.5132 0 8.47312 4.51235 8.60925 9.40588C8.74003 14.1071 8.57015 20.1964 7.34869 25.1619C6.12356 30.1419 4.05131 33.2965 0.666748 33.7016V38.2744C4.05131 38.6795 6.12356 41.8341 7.34869 46.8145C8.57015 51.78 8.74003 57.8686 8.60925 62.5701C8.47312 67.4629 11.5132 71.976 15.6219 71.976H57.7175C61.826 71.976 64.8652 67.4636 64.729 62.5701C64.5985 57.8689 64.7681 51.78 65.9896 46.8145C67.2156 41.8345 69.2822 38.6792 72.6667 38.2744V33.7016C69.2822 33.2965 67.2156 30.1419 65.9899 25.1619C64.7681 20.1971 64.5985 14.1074 64.729 9.40588C64.8652 4.51306 61.826 0 57.7175 0H15.6208H15.6214ZM49.4805 44.3058C49.4805 51.0441 45.4755 55.1305 38.829 55.1305H27.5143C27.1907 55.1304 26.8804 54.969 26.6516 54.6818C26.4228 54.3946 26.2942 54.0052 26.2942 53.5991V18.3769C26.2942 18.1758 26.3257 17.9766 26.3871 17.7908C26.4484 17.6049 26.5383 17.4361 26.6516 17.2938C26.7649 17.1516 26.8994 17.0388 27.0475 16.9618C27.1956 16.8848 27.3543 16.8452 27.5146 16.8452H38.7643C44.3063 16.8452 47.9435 20.6128 47.9435 26.3968C47.9435 30.4567 45.4966 34.0913 42.3795 34.7276V34.9398C46.6233 35.5239 49.4805 39.2118 49.4805 44.3058ZM37.5949 21.6999H31.1438V33.1352H36.5776C40.7778 33.1352 43.0942 31.0126 43.0942 27.2185C43.0942 23.6633 41.1021 21.6999 37.5949 21.6999ZM31.1438 37.6726V50.2744H37.8325C42.2054 50.2744 44.5223 48.0724 44.5223 43.9338C44.5223 39.7945 42.141 37.6719 37.5513 37.6719H31.1438V37.6726Z" fill="#7E13F8"/>
</g>
<defs>
<clipPath id="clip0_19_92">
<rect width="72" height="72" fill="white" transform="translate(0.666748)"/>
</clipPath>
</defs>
</svg>
