<svg width="73" height="72" viewBox="0 0 73 72" fill="none" xmlns="http://www.w3.org/2000/svg">
<g clip-path="url(#clip0_19_83)">
<path d="M36.6228 71.8181L7.32162 66.0497L0.79184 14.114H72.5415L66.005 66.0418L36.6228 71.8181Z" fill="#264DE4"/>
<path d="M60.409 62.7351L65.9946 18.3604H36.6667V67.4028L60.409 62.7351Z" fill="#2965F1"/>
<path d="M15.7611 37.6227L16.566 43.9924H36.6667V37.6227H15.7611ZM14.1433 24.7303L14.9598 31.1H36.6667V24.7303H14.1433ZM36.6667 54.1655L36.6273 54.1729L26.6238 52.2574L25.9842 47.1773H16.9674L18.2257 57.1788L36.6253 60.8007L36.6667 60.7927V54.1655Z" fill="#EBEBEB"/>
<path d="M17.6778 0H28.5566V3.22624H22.2273V6.45248H28.5571V9.67852H17.6778V0ZM30.7326 0H41.6116V2.80541H35.2821V3.36645H41.6116V9.81892H30.7329V6.87291H37.0624V6.31187H30.7323L30.7326 0ZM43.7877 0H54.6667V2.80541H48.3372V3.36645H54.6667V9.81892H43.7877V6.87291H50.1172V6.31187H43.788V0H43.7877Z" fill="black"/>
<path d="M57.5149 37.6227L59.1363 24.7303H36.6357V31.1H49.2926L48.4752 37.6227H36.6357V43.9924H47.6965L46.6536 52.2535L36.6355 54.1709V60.7977L55.0497 57.1788L55.1847 56.1026L57.2958 39.3331L57.5149 37.6227Z" fill="white"/>
</g>
<defs>
<clipPath id="clip0_19_83">
<rect width="72" height="72" fill="white" transform="translate(0.666687)"/>
</clipPath>
</defs>
</svg>
