<svg width="75" height="74" viewBox="0 0 75 74" fill="none" xmlns="http://www.w3.org/2000/svg">
<path d="M5.29163 40.8665V33.1335L32.7179 18.796V25.9L12.4604 36.8589L32.7225 48.0399V55.2086L5.29163 40.8665ZM69.6115 20.3315L45.6794 53.7171H37.4631L61.4414 20.3292L69.6115 20.3315ZM62.9816 49.7187C63.2528 49.724 63.5219 49.6691 63.7694 49.5579C64.0169 49.4468 64.2367 49.2821 64.413 49.0759C64.8102 48.6038 65.0149 47.9994 64.9865 47.3831C65.0096 46.7528 64.8062 46.135 64.413 45.6418C64.2471 45.4264 64.034 45.2519 63.79 45.1318C63.546 45.0118 63.2778 44.9494 63.0058 44.9494C62.7339 44.9494 62.4657 45.0118 62.2217 45.1318C61.9777 45.2519 61.7646 45.4264 61.5987 45.6418C61.2055 46.135 61.0021 46.7528 61.0252 47.3831C60.996 47.9952 61.1909 48.597 61.5732 49.0759C61.7437 49.283 61.9591 49.4486 62.2031 49.56C62.4472 49.6714 62.7134 49.7257 62.9816 49.7187ZM68.0367 52.1284C66.6563 53.3759 64.8608 54.0647 63.0002 54.0605C61.1396 54.0562 59.3473 53.3592 57.9727 52.1052C57.3403 51.4883 56.8377 50.751 56.4946 49.9368C56.1515 49.1227 55.9747 48.2481 55.9747 47.3646C55.9747 46.4811 56.1515 45.6065 56.4946 44.7924C56.8377 43.9782 57.3403 43.241 57.9727 42.624C59.3468 41.3664 61.142 40.6689 63.0047 40.6689C64.8674 40.6689 66.6626 41.3664 68.0367 42.624C68.6814 43.2339 69.1924 43.971 69.5375 44.7886C69.8827 45.6062 70.0543 46.4865 70.0416 47.3739C70.0587 48.2609 69.8892 49.1417 69.5442 49.9592C69.1992 50.7766 68.6864 51.5125 68.039 52.1191L68.0367 52.1284ZM44.1902 30.2036C44.4615 30.2088 44.7305 30.1539 44.978 30.0427C45.2256 29.9316 45.4454 29.7669 45.6216 29.5607C46.0188 29.0886 46.2236 28.4842 46.1951 27.8679C46.2182 27.2376 46.0148 26.6198 45.6216 26.1266C45.4555 25.9116 45.2422 25.7375 44.9983 25.6177C44.7544 25.4979 44.4862 25.4356 44.2145 25.4356C43.9427 25.4356 43.6746 25.4979 43.4306 25.6177C43.1867 25.7375 42.9735 25.9116 42.8073 26.1266C42.4142 26.6198 42.2107 27.2376 42.2338 27.8679C42.2047 28.48 42.3995 29.0818 42.7819 29.5607C42.9523 29.7678 43.1677 29.9334 43.4118 30.0448C43.6558 30.1562 43.922 30.2105 44.1902 30.2036ZM49.2453 32.6062C47.865 33.8538 46.0695 34.5426 44.2088 34.5383C42.3482 34.5341 40.5559 33.837 39.1813 32.5831C38.5489 31.9661 38.0464 31.2289 37.7032 30.4147C37.3601 29.6006 37.1833 28.726 37.1833 27.8425C37.1833 26.959 37.3601 26.0844 37.7032 25.2703C38.0464 24.4561 38.5489 23.7188 39.1813 23.1019C40.5554 21.8443 42.3506 21.1468 44.2133 21.1468C46.076 21.1468 47.8712 21.8443 49.2453 23.1019C49.8922 23.7143 50.4043 24.4549 50.7491 25.2763C51.0939 26.0977 51.2638 26.9819 51.2479 27.8726C51.2633 28.7577 51.0931 29.6363 50.7482 30.4516C50.4032 31.2669 49.8913 32.0009 49.2453 32.6062Z" fill="#90A93A"/>
</svg>
