<svg width="73" height="72" viewBox="0 0 73 72" fill="none" xmlns="http://www.w3.org/2000/svg">
<g clip-path="url(#clip0_21_180)">
<path d="M0.801876 55.8744V28.34H10.8065V26.7294H0.801876V1.61009H11.439V0H0.333313V57.4845H11.5327V55.8744H0.801876ZM20.5534 16.1019L16.4063 34.861L12.3528 16.1024H11.7436L16.1251 36.0691L11.3218 57.484H11.8841L16.406 37.2757L20.9515 57.484H21.5372L16.7106 36.0681L21.1154 16.1014H20.5532L20.5534 16.1019ZM22.9431 71.6545V45.8915H22.99C23.2712 49.6486 23.8257 52.6678 24.6536 54.949C25.4814 57.2298 26.5357 58.3707 27.8165 58.3707C28.6444 58.3707 29.3786 57.7938 30.019 56.6398C30.6594 55.4859 31.1943 53.9159 31.6239 51.9299C32.0534 49.9438 32.3815 47.636 32.608 45.0058C32.8344 42.3761 32.9478 39.6116 32.9478 36.7137C32.9478 33.6003 32.8305 30.7285 32.5962 28.0988C32.3619 25.4687 32.0222 23.1874 31.5771 21.2555C31.1319 19.3231 30.593 17.8198 29.9603 16.747C29.3278 15.6733 28.6131 15.1364 27.8165 15.1364C27.2073 15.1364 26.6412 15.4452 26.1179 16.0623C25.5946 16.6798 25.13 17.5516 24.7239 18.6789C24.3154 19.8149 23.9598 21.1588 23.6695 22.6641C23.3728 24.1939 23.1462 25.8712 22.99 27.6963H22.9431V16.1019H22.4746V71.6545H22.9431ZM27.8165 56.8404C26.3484 56.8404 25.169 55.1095 24.2787 51.6477C23.3884 48.1859 22.9431 43.2072 22.9431 36.7127C22.9431 34.0289 23.0525 31.4795 23.2712 29.0643C23.4899 26.6492 23.8062 24.5288 24.22 22.7042C24.634 20.879 25.1456 19.4298 25.7547 18.3566C26.3638 17.2829 27.0512 16.746 27.8165 16.746C28.5975 16.746 29.281 17.2829 29.8667 18.3566C30.4524 19.4298 30.9367 20.8926 31.3193 22.7443C31.702 24.596 31.991 26.7163 32.1863 29.1044C32.3815 31.493 32.4791 34.0289 32.4791 36.7127C32.4791 39.1284 32.3893 41.5305 32.2096 43.9185C32.03 46.3071 31.7527 48.4541 31.3778 50.3599C31.0031 52.2647 30.5228 53.8212 29.937 55.0293C29.3511 56.2368 28.6444 56.8404 27.8165 56.8404ZM35.525 57.4845V34.056C35.525 31.8018 35.6187 29.6007 35.8063 27.4542C35.9936 25.3073 36.2825 23.415 36.6731 21.7783C37.0636 20.1412 37.5594 18.8529 38.1609 17.9135C38.7622 16.9741 39.4768 16.5851 40.3047 16.746V15.1359C39.5861 15.0828 38.9575 15.3505 38.4186 15.941C37.8796 16.5315 37.415 17.3365 37.0245 18.3566C36.634 19.3762 36.3216 20.5703 36.0874 21.9392C35.8533 23.306 35.6795 24.7847 35.5718 26.3269H35.525V16.1019H35.0564V57.485L35.525 57.4845ZM40.8904 37.1153H50.9652C50.9966 34.2705 50.9146 31.5336 50.7192 28.9034C50.5241 26.2732 50.2116 23.9383 49.7821 21.8991C49.3525 19.8594 48.798 18.2223 48.1185 16.9876C47.439 15.753 46.6307 15.1359 45.6936 15.1359C45.0218 15.1359 44.3658 15.6192 43.7254 16.5856C43.085 17.5516 42.5226 18.9602 42.0385 20.8119C41.5543 22.6636 41.1638 24.9313 40.8671 27.6156C40.5703 30.299 40.4218 33.3582 40.4218 36.7934C40.4218 39.8527 40.5234 42.711 40.7264 45.3677C40.9295 48.0245 41.2418 50.3328 41.6636 52.2918C42.0854 54.2508 42.6283 55.7671 43.292 56.8404C43.9558 57.9141 44.7563 58.4239 45.6936 58.3703C47.0681 58.3703 48.224 57.0414 49.1611 54.3851C50.0984 51.7279 50.6529 47.9844 50.8247 43.1536H50.3562C50.1531 47.7162 49.6336 51.1379 48.798 53.4187C47.9623 55.7 46.912 56.8404 45.6466 56.8404C44.7875 56.8404 44.0612 56.3306 43.4676 55.311C42.8742 54.2914 42.3899 52.8954 42.015 51.1243C41.6402 49.3529 41.3629 47.2731 41.1833 44.8845C41.0036 42.4964 40.906 39.9064 40.8904 37.1153ZM50.4966 35.5052H40.8905C40.9372 32.6068 41.0935 30.0037 41.359 27.6958C41.6246 25.3875 41.9721 23.415 42.4017 21.7783C42.8312 20.1412 43.3311 18.8935 43.9012 18.0343C44.4713 17.1756 45.0844 16.746 45.7404 16.746C46.5215 16.746 47.2085 17.2428 47.8023 18.2358C48.3957 19.2288 48.8917 20.5843 49.2901 22.3016C49.6883 24.019 49.989 26.0186 50.192 28.2994C50.3951 30.5807 50.4966 32.9828 50.4966 35.5052ZM60.6887 28.34H61.1573C61.1573 23.7238 60.7668 20.3692 59.9859 18.2759C59.2047 16.1826 58.1426 15.1359 56.7993 15.1359C56.0495 15.1359 55.417 15.4583 54.9014 16.1024C54.386 16.746 53.9643 17.5781 53.6362 18.5977C53.3083 19.6173 53.074 20.7447 52.9334 21.9793C52.7928 23.214 52.7225 24.395 52.7225 25.5218C52.7225 27.7761 52.8396 29.5741 53.074 30.916C53.3083 32.2579 53.6753 33.3046 54.1751 34.056C54.5188 34.5924 54.9092 35.0756 55.3467 35.5057C55.784 35.9348 56.2917 36.3909 56.8696 36.8737C57.385 37.3037 57.8927 37.7328 58.3926 38.1619C58.8924 38.5915 59.3337 39.1685 59.7163 39.8928C60.0991 40.6177 60.4114 41.5435 60.6536 42.6709C60.8956 43.7977 61.0167 45.274 61.0167 47.0986C61.0167 48.8701 60.8957 50.3729 60.6536 51.6071C60.4135 52.8353 60.0975 53.8663 59.7281 54.6267C59.3532 55.4047 58.9353 55.9682 58.4746 56.317C58.0138 56.6659 57.5647 56.8404 57.1274 56.8404C55.706 56.8404 54.6164 55.7536 53.8588 53.5801C53.1013 51.4061 52.7226 47.9844 52.7226 43.3145H52.2539C52.2539 48.5212 52.664 52.3319 53.4839 54.7475C54.3041 57.1627 55.5185 58.3703 57.1274 58.3703C57.6428 58.3703 58.1621 58.1687 58.6855 57.7662C59.2086 57.3637 59.6773 56.7065 60.0912 55.7937C60.5016 54.8938 60.8462 53.682 61.0986 52.2517C61.3564 50.802 61.4854 49.031 61.4854 46.9377C61.4854 44.9517 61.372 43.3416 61.1456 42.1069C60.9191 40.8728 60.6223 39.8527 60.2552 39.0477C59.8881 38.2426 59.4743 37.612 59.0135 37.1559C58.55 36.697 58.0853 36.254 57.6193 35.827C57.0458 35.31 56.4718 34.8002 55.8972 34.2976C55.4053 33.868 54.9484 33.3582 54.5267 32.7677C54.1205 32.1772 53.7964 31.3321 53.5542 30.2318C53.3121 29.1315 53.1912 27.5615 53.1912 25.5218C53.1912 25.1464 53.2224 24.4752 53.2848 23.5092C53.3473 22.5428 53.4958 21.5633 53.73 20.5703C53.9643 19.5777 54.3235 18.692 54.8078 17.9135C55.292 17.1355 55.9558 16.746 56.7993 16.746C57.3773 16.746 57.9043 16.9611 58.3808 17.3902C58.8572 17.8198 59.2673 18.504 59.6108 19.4434C59.9545 20.3828 60.22 21.5768 60.4075 23.026C60.5949 24.4756 60.6887 26.2467 60.6887 28.34ZM71.5367 28.34H72.0052C72.0052 23.7238 71.6149 20.3692 70.8338 18.2759C70.0528 16.1826 68.9907 15.1359 67.6473 15.1359C66.8976 15.1359 66.2649 15.4583 65.7495 16.1024C65.234 16.746 64.8123 17.5781 64.4843 18.5977C64.1562 19.6173 63.922 20.7447 63.7813 21.9793C63.6407 23.214 63.5705 24.395 63.5705 25.5218C63.5705 27.7761 63.6877 29.5741 63.9221 30.916C64.1563 32.2579 64.5234 33.3046 65.0232 34.056C65.3669 34.5924 65.7573 35.0756 66.1946 35.5057C66.632 35.9348 67.1396 36.3909 67.7176 36.8737C68.2331 37.3037 68.7408 37.7328 69.2405 38.1619C69.7405 38.5915 70.1816 39.1685 70.5644 39.8928C70.947 40.6177 71.2595 41.5435 71.5015 42.6709C71.7437 43.7977 71.8648 45.274 71.8648 47.0986C71.8648 48.8701 71.7437 50.3729 71.5015 51.6071C71.2615 52.8352 70.9455 53.8663 70.5762 54.6267C70.2012 55.4047 69.7834 55.9682 69.3225 56.317C68.8618 56.6659 68.4127 56.8404 67.9753 56.8404C66.5539 56.8404 65.4645 55.7536 64.7069 53.5801C63.9493 51.4061 63.5705 47.9844 63.5705 43.3145H63.102C63.102 48.5212 63.5119 52.3319 64.332 54.7475C65.152 57.1627 66.3665 58.3703 67.9753 58.3703C68.4909 58.3703 69.0102 58.1687 69.5335 57.7662C70.0566 57.3637 70.5253 56.7065 70.9393 55.7937C71.3496 54.8938 71.6943 53.682 71.9467 52.2517C72.2045 50.802 72.3333 49.031 72.3333 46.9377C72.3333 44.9517 72.2201 43.3416 71.9936 42.1069C71.7672 40.8728 71.4704 39.8527 71.1033 39.0477C70.7362 38.2426 70.3222 37.612 69.8615 37.1559C69.3981 36.697 68.9334 36.254 68.4674 35.827C67.8939 35.31 67.3199 34.8002 66.7453 34.2976C66.2533 33.868 65.7964 33.3582 65.3746 32.7677C64.9685 32.1772 64.6444 31.3321 64.4023 30.2318C64.1602 29.1315 64.0391 27.5615 64.0391 25.5218C64.0391 25.1464 64.0703 24.4752 64.1329 23.5092C64.1953 22.5428 64.3438 21.5633 64.578 20.5703C64.8123 19.5777 65.1716 18.692 65.6557 17.9135C66.1401 17.1355 66.8038 16.746 67.6474 16.746C68.2254 16.746 68.7524 16.9611 69.2289 17.3902C69.7053 17.8198 70.1152 18.504 70.4589 19.4434C70.8026 20.3828 71.0681 21.5768 71.2556 23.026C71.443 24.4756 71.5368 26.2467 71.5368 28.34H71.5367Z" fill="#222222"/>
</g>
<defs>
<clipPath id="clip0_21_180">
<rect width="72" height="72" fill="white" transform="translate(0.333313)"/>
</clipPath>
</defs>
</svg>
