<svg width="73" height="72" viewBox="0 0 73 72" fill="none" xmlns="http://www.w3.org/2000/svg">
<g clip-path="url(#clip0_21_172)">
<path d="M26.2604 72.5625C32.9541 72.5625 38.3541 67.1625 38.3541 60.4688V48.375H26.2604C19.5666 48.375 14.1666 53.775 14.1666 60.4688C14.1666 67.1625 19.5666 72.5625 26.2604 72.5625Z" fill="#0ACF83"/>
<path d="M14.1666 36.2812C14.1666 29.5875 19.5666 24.1875 26.2604 24.1875H38.3541V48.375H26.2604C19.5666 48.375 14.1666 42.975 14.1666 36.2812Z" fill="#A259FF"/>
<path d="M14.1666 12.0938C14.1666 5.4 19.5666 0 26.2604 0H38.3541V24.1875H26.2604C19.5666 24.1875 14.1666 18.7875 14.1666 12.0938Z" fill="#F24E1E"/>
<path d="M38.3541 0H50.4479C57.1416 0 62.5416 5.4 62.5416 12.0938C62.5416 18.7875 57.1416 24.1875 50.4479 24.1875H38.3541V0Z" fill="#FF7262"/>
<path d="M62.5416 36.2812C62.5416 42.975 57.1416 48.375 50.4479 48.375C43.7541 48.375 38.3541 42.975 38.3541 36.2812C38.3541 29.5875 43.7541 24.1875 50.4479 24.1875C57.1416 24.1875 62.5416 29.5875 62.5416 36.2812Z" fill="#1ABCFE"/>
</g>
<defs>
<clipPath id="clip0_21_172">
<rect width="72" height="72" fill="white" transform="translate(0.666626)"/>
</clipPath>
</defs>
</svg>
