<svg width="72" height="72" viewBox="0 0 72 72" fill="none" xmlns="http://www.w3.org/2000/svg">
<g clip-path="url(#clip0_21_178)">
<path d="M70.1646 32.8376L39.1618 1.83601C37.3776 0.050635 34.4818 0.050635 32.6948 1.83601L26.2575 8.27438L34.4239 16.4408C36.3223 15.8001 38.4981 16.2298 40.0106 17.7424C41.5311 19.2645 41.9574 21.4588 41.301 23.3634L49.1715 31.2345C51.0756 30.5781 53.2733 31.0022 54.7931 32.5254C56.9194 34.65 56.9194 38.0942 54.7931 40.2199C54.2879 40.7254 53.6879 41.1264 53.0276 41.4C52.3673 41.6736 51.6595 41.8145 50.9448 41.8145C50.23 41.8145 49.5223 41.6736 48.862 41.4C48.2017 41.1264 47.6017 40.7254 47.0964 40.2199C46.3373 39.4603 45.8198 38.493 45.6091 37.44C45.3984 36.3869 45.5039 35.2951 45.9124 34.3018L38.5729 26.9623L38.5718 46.2791C39.1043 46.5414 39.5905 46.8887 40.0112 47.3074C42.1363 49.4319 42.1363 52.875 40.0112 55.0041C37.8855 57.1286 34.4402 57.1286 32.3168 55.0041C30.1916 52.8756 30.1916 49.4325 32.3168 47.3074C32.8259 46.7974 33.4315 46.394 34.0982 46.1205V26.6248C33.431 26.3521 32.8252 25.9483 32.3168 25.4374C30.7069 23.8286 30.3193 21.4661 31.1451 19.4884L23.094 11.4373L1.83601 32.6942C0.978373 33.5521 0.496582 34.7155 0.496582 35.9286C0.496582 37.1416 0.978373 38.305 1.83601 39.1629L32.8393 70.1646C34.6247 71.95 37.5193 71.95 39.3075 70.1646L70.1651 39.3069C71.0226 38.4488 71.5042 37.2853 71.5041 36.0722C71.504 34.8591 71.0222 33.6956 70.1646 32.8376Z" fill="#F34F29"/>
</g>
<defs>
<clipPath id="clip0_21_178">
<rect width="72" height="72" fill="white"/>
</clipPath>
</defs>
</svg>
