<svg width="72" height="72" viewBox="0 0 72 72" fill="none" xmlns="http://www.w3.org/2000/svg">
<path d="M71.8749 14.114L65.3383 66.0418L35.9562 71.8181L6.65496 66.0497L0.125183 14.114H71.8749Z" fill="#E44D26"/>
<path d="M36 67.4028L59.7423 62.7351L65.3279 18.3604H36V67.4028Z" fill="#F16529"/>
<path d="M23.2932 31.1H36V24.7303H13.4767L13.6916 26.4392L15.8994 43.9924H36V37.6227H24.1141L23.2932 31.1ZM25.3176 47.1773H16.3007L17.559 57.1788L35.9587 60.8007L36 60.7927V54.1655L35.9607 54.1729L25.9572 52.2574L25.3176 47.1773Z" fill="#EBEBEB"/>
<path d="M6.8006 0H11.3653V3.19812H15.541V0H20.106V9.6847H15.5413V6.44171H11.3656V9.6847H6.80088L6.8006 0ZM26.1084 3.21168H22.0905V0H34.6944V3.21168H30.6739V9.6847H26.1093V3.21168H26.1084ZM36.6947 0H41.4543L44.3821 3.40295L47.3071 0H52.0686V9.6847H47.5225V4.88443L44.3821 8.32787H44.3033L41.1609 4.88443V9.6847H36.6947V0ZM54.3403 0H58.9064V6.48359H65.3256V9.6847H54.34V0H54.3403Z" fill="black"/>
<path d="M35.969 43.9924H47.0297L45.9869 52.2535L35.9688 54.1709V60.7977L54.383 57.1788L54.518 56.1026L56.6291 39.3331L56.8482 37.6227H35.969V43.9924ZM35.969 31.0845V31.1H57.6655L57.8455 29.6684L58.255 26.4392L58.4696 24.7303H35.969V31.0845Z" fill="white"/>
</svg>
