<svg width="73" height="72" viewBox="0 0 73 72" fill="none" xmlns="http://www.w3.org/2000/svg">
<g clip-path="url(#clip0_19_89)">
<path d="M0.333374 0H72.3334V72H0.333374V0Z" fill="#F7DF1E"/>
<path d="M19.2649 60.1684L24.7746 56.8339C25.8377 58.7185 26.8046 60.3132 29.1241 60.3132C31.3474 60.3132 32.7494 59.4436 32.7494 56.0607V33.055H39.5154V56.1563C39.5154 63.1643 35.4075 66.3542 29.4141 66.3542C24.0014 66.3542 20.8596 63.551 19.2646 60.1678M43.1905 59.4433L48.6996 56.2537C50.1501 58.6221 52.035 60.3619 55.3695 60.3619C58.1733 60.3619 59.9609 58.9601 59.9609 57.0268C59.9609 54.7071 58.1243 53.8852 55.0312 52.5324L53.34 51.8068C48.4583 49.7292 45.2203 47.1192 45.2203 41.6095C45.2203 36.5347 49.0867 32.668 55.1282 32.668C59.4296 32.668 62.5228 34.1665 64.7458 38.0812L59.4774 41.4647C58.3173 39.3865 57.0612 38.565 55.1279 38.565C53.1462 38.565 51.8896 39.8216 51.8896 41.4647C51.8896 43.4945 53.1462 44.3166 56.0459 45.5732L57.7373 46.298C63.4889 48.7631 66.7269 51.2761 66.7269 56.9303C66.7269 63.0205 61.9423 66.355 55.5143 66.355C49.2315 66.355 45.1717 63.3586 43.1902 59.4436" fill="black"/>
</g>
<defs>
<clipPath id="clip0_19_89">
<rect width="72" height="72" fill="white" transform="translate(0.333374)"/>
</clipPath>
</defs>
</svg>
