<svg width="73" height="72" viewBox="0 0 73 72" fill="none" xmlns="http://www.w3.org/2000/svg">
<g clip-path="url(#clip0_19_124)">
<path d="M55.4584 0H17.2084C7.88857 0 0.333374 7.55519 0.333374 16.875V55.125C0.333374 64.4448 7.88857 72 17.2084 72H55.4584C64.7782 72 72.3334 64.4448 72.3334 55.125V16.875C72.3334 7.55519 64.7782 0 55.4584 0Z" fill="url(#paint0_linear_19_124)"/>
<path d="M22.619 19.3331C19.8105 23.4444 20.1604 28.7924 22.3001 33.1554L22.4576 33.4662L22.5639 33.6631C22.5836 33.7013 22.6061 33.739 22.6266 33.7761C22.6638 33.8453 22.7009 33.9117 22.733 33.9798L22.9377 34.3375L23.0544 34.5344L23.2921 34.913L23.3984 35.0724C23.5047 35.2426 23.6248 35.4116 23.7429 35.5784L23.7525 35.5916C23.771 35.6183 23.7919 35.6448 23.8059 35.6715C23.9077 35.8149 24.0183 35.9564 24.1246 36.0967L24.2427 36.2497L24.5324 36.6126L24.6429 36.7476C24.7748 36.9065 24.9095 37.0634 25.0471 37.2175L25.0555 37.226C25.0609 37.2327 25.0662 37.2367 25.0715 37.2434C25.2049 37.3939 25.3415 37.541 25.4819 37.6847L25.6138 37.8197L25.9417 38.1473L26.0756 38.277C26.223 38.4182 26.3729 38.5568 26.5248 38.6932L26.61 38.7675L27.0178 39.1185L27.1865 39.2557L27.5269 39.5215L27.7088 39.6624L28.2289 40.0424C28.2421 40.0514 28.2536 40.061 28.2671 40.07C28.3892 40.1552 28.5132 40.2376 28.6375 40.32L28.7981 40.4288L29.3786 40.7905L29.5392 40.8825L29.9751 41.1311C30.0547 41.1747 30.1363 41.2163 30.2159 41.2577L30.5275 41.4172L30.5992 41.4523L30.7269 41.515L31.2211 41.7479L31.326 41.8011C31.5167 41.8857 31.7088 41.967 31.9023 42.0449L32.0426 42.1014L32.5863 42.3065L32.6543 42.3309C32.8552 42.4018 33.0572 42.4693 33.2604 42.5332L33.4067 42.5776C33.6193 42.6414 33.8187 42.7176 34.0325 42.7584C47.614 45.2869 51.5602 34.4514 51.5602 34.4514C48.2468 38.8479 42.3653 40.0067 36.7932 38.7166C36.582 38.6634 36.3772 38.6013 36.1711 38.5391L36.0158 38.486C35.8153 38.4231 35.6157 38.357 35.4173 38.2877L35.3349 38.2573C35.158 38.1935 34.982 38.127 34.807 38.0579L34.6582 37.9983C34.4667 37.9215 34.2766 37.841 34.0881 37.757L33.9745 37.7061L33.4939 37.4774L33.3558 37.4093C33.2309 37.3465 33.1067 37.2822 32.9834 37.2164L32.7353 37.0834C32.5853 37.0013 32.4367 36.9164 32.2898 36.8288L32.1394 36.7436C31.944 36.6262 31.7505 36.5057 31.5589 36.3822C31.5057 36.3476 31.4545 36.3111 31.4019 36.2759L30.9888 35.9963L30.856 35.9007L30.4654 35.6136L30.2918 35.4805L29.9394 35.1998L29.7822 35.0724L29.3435 34.7003C29.3268 34.6854 29.309 34.6716 29.2903 34.6593C29.1343 34.5192 28.9806 34.3767 28.829 34.2318L28.6991 34.1044L28.3672 33.7736L28.2379 33.6406C28.0996 33.4971 27.9641 33.3511 27.8312 33.2027C27.8247 33.1951 27.8171 33.1883 27.8109 33.1813C27.6703 33.0246 27.5328 32.8649 27.3983 32.7029L27.2903 32.5721L26.9928 32.1983L26.8836 32.0602L26.5408 31.5951C23.447 27.297 22.3412 21.3694 24.8077 16.5009L22.619 19.3331ZM31.3375 15.8692C29.3069 18.8463 29.4169 22.8302 31.0011 25.9785C31.2661 26.5071 31.5662 27.0173 31.8995 27.5057C32.2038 27.9498 32.5413 28.4788 32.9451 28.8349C33.0914 28.9943 33.2444 29.1538 33.4008 29.3167C33.4401 29.3574 33.4806 29.3962 33.5209 29.4373C33.6727 29.5878 33.828 29.7349 33.9866 29.878C33.9931 29.8834 33.999 29.8896 34.0057 29.8949C34.1845 30.0537 34.3673 30.208 34.5539 30.3576L34.6774 30.4552C34.863 30.6014 35.0528 30.7423 35.246 30.8784C35.2511 30.8827 35.2565 30.8869 35.2621 30.8908C35.347 30.9507 35.4348 31.0075 35.5214 31.0649C35.563 31.0927 35.6021 31.122 35.6437 31.1479C35.7824 31.2387 35.923 31.3265 36.0653 31.4111L36.125 31.4463L36.497 31.6589C36.5406 31.6839 36.5851 31.7056 36.6298 31.7289L36.8956 31.8662C36.9091 31.8732 36.9223 31.8783 36.935 31.8847C37.1141 31.975 37.2944 32.0602 37.4789 32.1427C37.5183 32.1601 37.5585 32.1761 37.599 32.193C37.7467 32.2572 37.8956 32.3187 38.0456 32.3775L38.2369 32.4489C38.3727 32.4993 38.5091 32.5476 38.6464 32.5941L38.8311 32.654C39.0263 32.7161 39.2193 32.7937 39.4229 32.8283C49.909 34.5977 52.3306 26.3745 52.3306 26.3745C50.1484 29.5748 45.9226 31.1029 41.4122 29.9109C41.2127 29.8578 41.0147 29.7993 40.8185 29.7354C40.7583 29.7169 40.6995 29.6972 40.6399 29.6823C40.5006 29.6364 40.3622 29.5878 40.2247 29.5366L40.0369 29.4654C39.8864 29.4123 39.7376 29.3459 39.5905 29.2821C39.55 29.2643 39.5095 29.2486 39.4699 29.23C39.2848 29.149 39.1022 29.0627 38.9223 28.971C38.8297 28.9249 38.7389 28.8765 38.6478 28.8284L38.4894 28.7457C38.3725 28.6814 38.2568 28.6149 38.1424 28.5463L38.0594 28.4931C37.9179 28.4085 37.7779 28.3213 37.6395 28.2316C37.5967 28.2037 37.5554 28.1784 37.5129 28.1455L37.2407 27.9621C37.0484 27.826 36.8594 27.6852 36.674 27.54L36.5463 27.4379C34.5725 25.8505 33.0073 23.6815 32.2637 21.2217C31.4838 18.6699 31.6522 15.8071 33.0079 13.4834L31.3375 15.8692ZM38.6686 13.2815C37.4713 15.0761 37.354 17.3047 38.1902 19.2867C39.0663 21.3902 40.8615 23.0408 42.9565 23.823C43.0429 23.8559 43.1295 23.8849 43.2223 23.915L43.3373 23.9521C43.4605 23.9915 43.5834 24.037 43.7105 24.0618C49.5009 25.2008 51.0711 21.0355 51.4891 20.4224C50.1132 22.4401 47.8013 22.9244 44.9646 22.2232C44.7413 22.1673 44.4941 22.0849 44.2733 22.0075C43.9958 21.9071 43.7238 21.7919 43.4585 21.6624C42.9537 21.4148 42.4749 21.1172 42.0295 20.774C39.4856 18.8122 37.9084 15.0708 39.5649 12.0237M25.881 51.379L25.4889 52.7698L25.881 51.3796V51.379ZM37.4086 48.1947H35.6117C35.5608 48.1965 35.5118 48.2148 35.4722 48.2468C35.4325 48.2788 35.4043 48.3228 35.3917 48.3722L34.1157 54.277C34.1031 54.3262 34.075 54.37 34.0354 54.4019C33.9959 54.4338 33.9471 54.4521 33.8963 54.4539H32.6242C31.3654 54.4539 31.511 53.5837 31.7735 52.3912L31.7816 52.3552L31.934 51.5419L31.9999 51.2069L32.5806 48.3722C32.5862 48.3505 32.5865 48.3279 32.5817 48.3061C32.5769 48.2843 32.5671 48.2639 32.5529 48.2466C32.5388 48.2293 32.5209 48.2155 32.5005 48.2064C32.4801 48.1973 32.4578 48.1931 32.4355 48.1941H30.5908C30.54 48.1959 30.4911 48.2142 30.4516 48.2462C30.412 48.2783 30.384 48.3223 30.3717 48.3716L29.5406 52.3131C29.0836 54.3991 29.2048 56.3887 31.6885 56.4508L31.7602 56.4522H35.6581C35.709 56.4504 35.7579 56.4321 35.7975 56.4001C35.8371 56.3681 35.8652 56.3241 35.8777 56.2747L37.5585 48.3716C37.5799 48.274 37.5143 48.1941 37.415 48.1941L37.4086 48.1947ZM44.5785 54.4747C44.6786 54.4747 44.738 54.5543 44.7236 54.6522L44.5492 55.5055L44.5785 54.4747Z" fill="white"/>
<path d="M39.7711 53.3765C39.7697 53.2828 39.876 53.1222 39.9758 53.1222L39.7514 53.1186C39.6451 54.1361 39.7711 53.3765 39.7711 53.3765ZM44.5785 54.4747C44.6786 54.4747 44.738 54.5543 44.7236 54.6522L44.5205 55.6442L44.5785 54.4747ZM41.2353 56.5543H41.1512H41.246H41.2353ZM14.8149 53.3976L15.0942 52.1601L14.7753 53.5742L14.7379 53.7517L14.8155 53.3967L14.8149 53.3976ZM18.1567 48.1745H16.1829C16.1319 48.1763 16.0827 48.1945 16.0428 48.2264C16.0029 48.2583 15.9743 48.3022 15.9613 48.3517L15.587 49.9995C15.5807 50.0208 15.5797 50.0434 15.5841 50.0652C15.5884 50.087 15.5979 50.1074 15.6117 50.1248C15.6256 50.1422 15.6434 50.1559 15.6637 50.165C15.6841 50.174 15.7062 50.178 15.7284 50.1767H17.7177C17.7686 50.1748 17.8174 50.1565 17.8571 50.1246C17.8967 50.0926 17.925 50.0488 17.9376 49.9995L18.2993 48.3477C18.3204 48.2507 18.2566 48.1708 18.1559 48.1708L18.1567 48.1745ZM11.9931 59.7971L13.621 59.8101C13.1404 59.8101 12.347 59.8011 11.9926 59.7968L11.9931 59.7971Z" fill="white"/>
<path d="M17.5847 50.7448H15.5948C15.5438 50.7466 15.4946 50.7648 15.4547 50.7967C15.4148 50.8287 15.3862 50.8726 15.3732 50.922L14.8149 53.397L14.7373 53.7522L14.2057 56.279C14.1796 56.3968 14.1475 56.5135 14.1101 56.6283C14.1101 56.6283 13.738 57.7341 13.1139 57.7218L12.4946 57.7102C12.4438 57.7115 12.3947 57.7291 12.3545 57.7602C12.3144 57.7914 12.2852 57.8346 12.2713 57.8835L11.8593 59.618C11.8528 59.6392 11.8515 59.6616 11.8556 59.6834C11.8596 59.7052 11.8688 59.7257 11.8823 59.7433C11.8959 59.7608 11.9135 59.7748 11.9336 59.7841C11.9537 59.7934 11.9758 59.7978 11.9979 59.7968L13.6264 59.8101C15.1873 59.8101 16.0097 58.9449 16.5373 56.457L17.7335 50.9282C17.7548 50.8311 17.6899 50.7513 17.59 50.7513L17.5847 50.7448ZM45.8464 56.4533C45.7465 56.4533 45.6869 56.3737 45.7029 56.2759L47.1995 49.266L45.8464 56.4533Z" fill="white"/>
<path d="M45.7246 56.3648C45.7125 56.3158 45.7195 56.196 45.7406 56.0987L46.4508 52.7709L45.7024 56.2759C45.681 56.3738 45.746 56.4534 45.8458 56.4534H46.0278C45.9279 56.4534 45.7364 56.4134 45.7246 56.3648ZM47.8087 56.4134C47.7544 56.4348 47.6278 56.4534 47.528 56.4534H47.7097C47.7604 56.4513 47.809 56.4328 47.8484 56.4007C47.8877 56.3686 47.9155 56.3246 47.9276 56.2753L47.9639 56.0979C47.9442 56.1954 47.8576 56.3918 47.8044 56.4134H47.8087ZM54.1337 49.7354L54.2161 50.0757C54.2392 50.173 54.1759 50.2521 54.0763 50.2526M48.496 53.4589L48.5694 53.1059L48.8549 51.7689L48.5317 53.2828L48.496 53.4583V53.4589ZM47.2239 49.1507L47.1618 49.4429L46.4513 52.7709L47.2 49.266L47.2239 49.1513V49.1507Z" fill="white"/>
<path d="M54.2167 50.0757L54.1343 49.7354L54.0122 49.2039C53.8505 48.5764 53.3763 48.2133 52.3461 48.2133L47.6039 48.2102C47.5531 48.2119 47.5042 48.2302 47.4647 48.2622C47.4252 48.2942 47.3973 48.3383 47.3851 48.3877L47.3117 48.735L47.2054 49.2595L45.7465 56.0925C45.7252 56.1904 45.7184 56.3051 45.7305 56.3583C45.7429 56.4114 45.9341 56.4472 46.0337 56.4472H47.5328C47.6326 56.4472 47.7586 56.4289 47.8134 56.4072C47.8683 56.3853 47.9484 56.1946 47.9729 56.0914L48.5419 53.2769L49.1505 50.4253C49.1631 50.3762 49.1912 50.3324 49.2307 50.3005C49.2702 50.2686 49.3189 50.2503 49.3696 50.2484L54.0864 50.2462C54.186 50.2462 54.2493 50.1666 54.2262 50.0693L54.2167 50.0757ZM60.2894 46.996L59.9263 46.9974H58.4166C58.3613 47.0009 58.3074 47.016 58.2584 47.0419C58.2095 47.0677 58.1665 47.1037 58.1325 47.1473L54.7941 52.0383C54.7378 52.1207 54.6734 52.1086 54.6506 52.0118L54.4048 50.9341C54.3917 50.8848 54.363 50.841 54.3232 50.8091C54.2833 50.7773 54.2342 50.7591 54.1832 50.7572H52.0373C51.9371 50.7572 51.8778 50.8354 51.9053 50.9316L52.8622 54.3009C52.8897 54.3966 52.8914 54.5543 52.8675 54.6517L52.4423 56.2824C52.4348 56.3032 52.4328 56.3256 52.4364 56.3474C52.44 56.3693 52.4491 56.3898 52.4628 56.4072C52.4764 56.4247 52.4942 56.4385 52.5144 56.4473C52.5347 56.4562 52.5569 56.4599 52.5789 56.4581H54.7052C54.7565 56.4561 54.8059 56.438 54.8466 56.4066C54.8872 56.3751 54.917 56.3318 54.9319 56.2826L55.3571 54.6522C55.3903 54.5375 55.4426 54.4289 55.5113 54.3313L60.9368 47.1369C60.997 47.0571 60.9647 46.9924 60.8646 46.9932L60.2959 46.9972L60.2894 46.996ZM43.2372 51.2153C43.2246 51.3217 43.1247 51.4015 43.0246 51.4015H40.3027C40.2087 51.4015 40.1609 51.3377 40.1753 51.2578L40.1772 51.2435L40.1896 51.1973C40.4554 50.5063 40.9791 50.0527 41.9736 50.0527C43.0938 50.0527 43.3123 50.6003 43.2364 51.2153H43.2372ZM42.4387 48.0746C38.9462 48.0746 38.1185 50.1947 37.6544 52.3344C37.1898 54.5155 37.23 56.5554 40.8441 56.5554H41.417L41.8582 56.5538L44.158 56.54C44.2085 56.5377 44.2568 56.5191 44.2958 56.487C44.3348 56.4549 44.3624 56.411 44.3743 56.3619L44.7236 54.6545C44.7439 54.5566 44.6786 54.4767 44.5785 54.4767H41.3292C40.0374 54.4767 39.6533 54.1333 39.7944 53.1239H44.9886C45.0303 53.1234 45.071 53.1104 45.1053 53.0865C45.1396 53.0627 45.166 53.029 45.1809 52.99C45.1869 52.9755 45.1911 52.9603 45.1936 52.9448C45.9645 50.0369 45.7434 48.0769 42.4399 48.0769L42.4387 48.0746ZM25.9299 51.2038L25.881 51.3776L25.4889 52.7681L25.0966 54.1578C25.0803 54.2068 25.0496 54.2497 25.0084 54.2808C24.9672 54.3119 24.9175 54.3298 24.866 54.3322H22.7892C21.2145 54.3322 20.8312 53.1006 21.2145 51.284C21.5973 49.426 22.3496 48.2707 23.8993 48.1539C26.0171 47.9945 26.4404 49.484 25.9299 51.2033V51.2038ZM27.3536 54.2258C27.3536 54.2258 28.3318 51.8496 28.5551 50.4765C28.858 48.6385 27.9386 45.9737 24.3848 45.9737C20.8508 45.9737 19.3166 48.5179 18.7316 51.2899C18.1466 54.0754 18.9133 56.5189 22.4261 56.4998L27.7879 56.4801C27.8393 56.4775 27.8887 56.4591 27.9293 56.4275C27.97 56.3959 27.9999 56.3526 28.0151 56.3034L28.4668 54.5822C28.474 54.5614 28.476 54.5391 28.4726 54.5173C28.4691 54.4955 28.4604 54.4749 28.4471 54.4573C28.4338 54.4396 28.4161 54.4255 28.3959 54.4165C28.3756 54.4074 28.3534 54.4037 28.3313 54.4056L27.4664 54.4002C27.3815 54.3997 27.3334 54.3451 27.3429 54.2728C27.345 54.259 27.3486 54.2454 27.3536 54.2323V54.2258Z" fill="white"/>
<path d="M44.846 52.6359C44.846 52.6675 44.8334 52.6978 44.8111 52.7202C44.7888 52.7425 44.7585 52.755 44.7269 52.755C44.6953 52.755 44.665 52.7425 44.6426 52.7202C44.6203 52.6978 44.6078 52.6675 44.6078 52.6359C44.6078 52.6043 44.6203 52.5741 44.6426 52.5517C44.665 52.5294 44.6953 52.5168 44.7269 52.5168C44.7585 52.5168 44.7888 52.5294 44.8111 52.5517C44.8334 52.5741 44.846 52.6043 44.846 52.6359Z" fill="white"/>
</g>
<defs>
<linearGradient id="paint0_linear_19_124" x1="0.333374" y1="0" x2="72.3334" y2="72" gradientUnits="userSpaceOnUse">
<stop stop-color="#FF5C00"/>
<stop offset="1" stop-color="#FF0F00"/>
</linearGradient>
<clipPath id="clip0_19_124">
<rect width="72" height="72" fill="white" transform="translate(0.333374)"/>
</clipPath>
</defs>
</svg>
