<svg width="32" height="32" viewBox="0 0 32 32" fill="none" xmlns="http://www.w3.org/2000/svg">
<path d="M27.7333 18.9627H4.87196C4.69754 18.9625 4.52786 19.0193 4.38873 19.1245C4.24961 19.2297 4.14867 19.3775 4.10129 19.5453L2.29329 25.9413C2.18121 26.3378 2.16255 26.7549 2.23875 27.1599C2.31496 27.5648 2.48397 27.9466 2.73252 28.2752C2.98107 28.6039 3.30239 28.8704 3.67128 29.054C4.04017 29.2376 4.44658 29.3332 4.85862 29.3333H27.1413C27.5533 29.3332 27.9597 29.2376 28.3286 29.054C28.6975 28.8704 29.0188 28.6039 29.2674 28.2752C29.5159 27.9466 29.685 27.5648 29.7612 27.1599C29.8374 26.7549 29.8187 26.3378 29.7066 25.9413L27.7333 18.9627ZM27.7333 18.9627V10.816M4.26662 18.9627V5.33334C4.26662 4.62609 4.54757 3.94782 5.04767 3.44772C5.54777 2.94762 6.22605 2.66667 6.93329 2.66667H16M14.6666 25.3333H17.3333M23.5426 6.43734L19.7706 10.2093M27.3133 6.43734C27.0673 6.69203 26.773 6.89518 26.4477 7.03494C26.1224 7.1747 25.7724 7.24826 25.4184 7.25134C25.0643 7.25442 24.7131 7.18694 24.3854 7.05286C24.0577 6.91878 23.76 6.72077 23.5096 6.47039C23.2592 6.22001 23.0612 5.92227 22.9271 5.59455C22.793 5.26683 22.7255 4.91568 22.7286 4.5616C22.7317 4.20752 22.8053 3.8576 22.945 3.53226C23.0848 3.20692 23.2879 2.91266 23.5426 2.66667M19.7706 13.98C20.2564 13.4771 20.5252 12.8035 20.5191 12.1043C20.513 11.4051 20.2326 10.7362 19.7381 10.2418C19.2437 9.7474 18.5749 9.46695 17.8757 9.46087C17.1765 9.4548 16.5029 9.72358 16 10.2093" stroke="white" stroke-width="1.5" stroke-linecap="round" stroke-linejoin="round"/>
</svg>
