<svg width="73" height="72" viewBox="0 0 73 72" fill="none" xmlns="http://www.w3.org/2000/svg">
<path fill-rule="evenodd" clip-rule="evenodd" d="M49.4164 56.3282C49.5115 56.1454 49.6026 55.9839 49.6803 55.8169C49.7292 55.71 49.8046 55.6886 49.9109 55.6914C50.5482 55.7094 51.1855 55.7291 51.8234 55.7353C52.3651 55.7409 52.9079 55.7308 53.4501 55.7246C54.061 55.7173 54.6719 55.6852 55.2822 55.7027C56.095 55.7263 56.887 55.8855 57.6222 56.2472C58.5003 56.6797 59.1646 57.3384 59.6174 58.2064C59.9021 58.7567 60.0798 59.356 60.1411 59.9726C60.2378 60.8771 60.1743 61.7608 59.8874 62.6259C59.5319 63.698 58.8569 64.5187 57.9192 65.1335C57.1975 65.6066 56.4061 65.8862 55.5578 66.0459C54.6601 66.2152 53.7595 66.1607 52.8589 66.1635C51.8712 66.1674 50.884 66.146 49.8963 66.1348C49.7236 66.1331 49.6988 66.1005 49.7444 65.9357L49.7866 65.7838C49.8828 65.4812 49.9345 65.4677 50.2416 65.417C50.4593 65.3828 50.6675 65.3037 50.8531 65.1847C50.9566 65.1161 50.9993 64.9372 51.0398 64.7994C51.0747 64.679 51.0764 64.5469 51.0775 64.4197C51.0916 62.4932 51.1062 60.5672 51.1141 58.6417C51.1162 58.1547 51.104 57.6678 51.0775 57.1815C51.0584 56.8412 50.8767 56.6083 50.4717 56.5279C50.1567 56.4654 49.8394 56.417 49.5228 56.3614L49.4164 56.3282ZM58.4592 60.993C58.4164 60.6094 58.3956 60.2224 58.327 59.8444C58.1628 58.937 57.7656 58.1467 57.0681 57.5274C55.9403 56.5267 54.5824 56.3726 53.1593 56.4919C52.8353 56.5189 52.7656 56.6297 52.7605 56.9627C52.7526 57.4352 52.7448 57.9077 52.7442 58.3802C52.7419 59.8787 52.7419 61.3772 52.7442 62.8757C52.7448 63.302 52.7493 63.7284 52.7616 64.1537C52.7751 64.5891 52.9332 64.9575 53.3596 65.1262C54.0318 65.3923 54.7388 65.4238 55.4442 65.3152C56.5709 65.1425 57.3589 64.4861 57.8877 63.5023C58.3062 62.7215 58.4243 61.8694 58.4592 60.993ZM61.198 66.0954C61.1845 65.862 61.2801 65.669 61.3983 65.4919C61.4303 65.444 61.5406 65.4463 61.6165 65.4311L62.2611 65.3034C62.4889 65.255 62.6088 65.102 62.6408 64.8787C62.6622 64.7314 62.6824 64.5823 62.6841 64.4332C62.6994 63.2537 62.7105 62.0742 62.7173 60.8946C62.7229 59.7133 62.7184 58.5321 62.7184 57.3508L62.7134 57.1252C62.6903 56.7455 62.5069 56.5487 62.1301 56.493L61.3128 56.3687C61.2121 56.3552 61.1755 56.3068 61.2121 56.2174C61.2751 56.0649 61.3353 55.9069 61.4241 55.7696C61.4573 55.719 61.5693 55.6993 61.6446 55.701C62.035 55.7066 62.4254 55.7359 62.8158 55.7353L66.2138 55.7151C66.8686 55.7145 67.5008 55.8287 68.0881 56.142C68.7344 56.4862 69.0961 57.0189 69.1996 57.7445C69.3076 58.5067 69.0764 59.1491 68.5195 59.6593C68.2906 59.8697 67.9941 60.0069 67.7286 60.1779L67.642 60.2319C67.8884 60.3225 68.1229 60.4007 68.3513 60.494C69.0196 60.768 69.5511 61.1961 69.8324 61.8795C70.0546 62.4189 70.0546 62.9814 69.9229 63.5405C69.7182 64.4158 69.1416 64.998 68.3918 65.4384C67.6881 65.8519 66.9265 66.0926 66.1154 66.1331C65.3673 66.1708 64.6158 66.1567 63.8659 66.1652L63.4317 66.1674C62.709 66.1508 61.9864 66.1328 61.2638 66.1134L61.198 66.0954ZM64.3126 62.6704H64.3199C64.3199 63.0405 64.3148 63.4106 64.3216 63.7807C64.3261 64.0204 64.3176 64.2667 64.3694 64.4974C64.447 64.8422 64.6045 65.1532 64.9915 65.2522C65.5089 65.3882 66.0493 65.412 66.5766 65.322C67.2387 65.2067 67.7669 64.8748 68.0566 64.2442C68.2714 63.7757 68.3035 63.279 68.2298 62.7716C68.1319 62.1034 67.777 61.6185 67.1869 61.3007C66.7999 61.092 66.3871 60.9643 65.9472 60.9474C65.4544 60.9289 64.9611 60.9277 64.4684 60.9126C64.33 60.9086 64.3109 60.9789 64.3114 61.0926C64.3143 61.6179 64.3126 62.1439 64.3126 62.6704ZM65.3616 60.1532C65.6311 60.1397 65.9359 60.1357 66.2391 60.1054C66.8196 60.0474 67.2286 59.7555 67.4418 59.2003C67.5503 58.9185 67.5458 58.6282 67.5486 58.3352C67.5571 57.5719 67.1116 56.9464 66.3865 56.6876C65.8268 56.4879 65.2497 56.4845 64.6692 56.5003C64.4341 56.5065 64.3289 56.6094 64.3255 56.8462L64.2906 59.9338C64.2889 60.0564 64.3418 60.1093 64.4611 60.1132L65.3616 60.1532Z" fill="#94795D"/>
<path fill-rule="evenodd" clip-rule="evenodd" d="M6.2637 65.502L6.22263 66.033C5.84013 66.033 5.48745 66.0302 5.13476 66.0341C4.47045 66.0409 3.80613 66.0516 3.14126 66.0611L3.07713 66.0651C2.98207 66.0538 2.80938 66.0538 2.80488 66.0257C2.77676 65.8676 2.78576 65.7017 2.79307 65.538C2.79363 65.5195 2.85832 65.4958 2.89601 65.4868L3.41295 65.3715C3.73526 65.2877 3.84888 65.1488 3.86407 64.8158C3.88151 64.4406 3.89895 64.0648 3.90063 63.6896C3.9057 62.766 3.90007 61.8435 3.90401 60.9199C3.90457 60.7039 3.82976 60.543 3.62838 60.4553C3.38909 60.3491 3.14813 60.2467 2.90557 60.1481C2.79082 60.102 2.64176 60.0767 2.65526 59.9226C2.66876 59.7656 2.81332 59.7246 2.94945 59.6936C3.51307 59.5648 4.07726 59.4394 4.6392 59.3021C4.82032 59.2577 4.99357 59.1829 5.21013 59.1075C5.22138 59.2245 5.2422 59.3359 5.23995 59.4473L5.20676 59.9766C5.2062 60.0362 5.23713 60.1161 5.28157 60.1493C5.30857 60.1701 5.39913 60.1324 5.44413 60.0975C5.92451 59.7319 6.43301 59.4163 7.01295 59.2324C7.91126 58.9472 8.68245 59.2116 9.22245 59.9861C9.41257 60.2589 9.41313 60.259 9.67695 60.0683C10.1298 59.7392 10.6034 59.4489 11.1333 59.2577C12.2965 58.8375 13.4142 59.3708 13.8186 60.5424C13.966 60.9677 14.0223 61.407 14.0211 61.8559L14.0104 64.836C14.0099 65.0818 14.0914 65.2219 14.3254 65.2984C14.5881 65.3844 14.8604 65.4435 15.1563 65.5211L15.0876 66.0336C14.7513 66.0336 14.4419 66.0313 14.1325 66.0341C13.3765 66.0409 12.6205 66.0448 11.8651 66.0623C11.7334 66.0656 11.6991 66.033 11.6924 65.9098C11.6704 65.5155 11.6671 65.5161 12.0383 65.4272L12.1632 65.3951C12.526 65.2961 12.6469 65.1848 12.6498 64.8169C12.6582 63.7605 12.6801 62.7013 12.6267 61.6472C12.571 60.5537 11.7031 59.9715 10.6433 60.2516C10.3013 60.3453 9.97916 60.5005 9.6927 60.7095C9.59426 60.7798 9.5757 60.8608 9.58357 60.984C9.61338 61.4498 9.63195 61.9161 9.63588 62.3824C9.64263 63.1986 9.63251 64.0148 9.63588 64.8315C9.63701 65.1623 9.75007 65.2888 10.0769 65.3653L10.5623 65.4773L10.6523 65.4975C10.6591 65.6528 10.6653 65.808 10.6579 65.9633C10.6534 66.0606 10.5781 66.069 10.4937 66.0673C10.0218 66.0555 9.54926 66.0398 9.07732 66.0409C8.50301 66.042 7.92926 66.0583 7.35551 66.0685H7.22051C7.22051 65.9036 7.21263 65.7461 7.22613 65.5892C7.22895 65.5515 7.29532 65.4986 7.34088 65.4868L7.90676 65.367C8.14695 65.308 8.2617 65.1848 8.2752 64.9406C8.33932 63.81 8.38545 62.6788 8.27913 61.5488C8.25322 61.3256 8.19129 61.1081 8.09576 60.9047C7.80607 60.2646 7.15413 59.9974 6.40207 60.1898C6.04488 60.2809 5.72257 60.4446 5.4177 60.651C5.35121 60.6919 5.2966 60.7496 5.2593 60.8182C5.222 60.8867 5.2033 60.9639 5.20507 61.0419C5.20507 62.1698 5.20901 63.2976 5.21238 64.4248L5.21857 64.8596C5.22532 65.1628 5.35413 65.3226 5.65507 65.3878C5.84857 65.4317 6.04432 65.4615 6.2637 65.502Z" fill="#50382B"/>
<path fill-rule="evenodd" clip-rule="evenodd" d="M40.2713 59.2228C40.3585 59.647 40.3568 60.0283 40.0452 60.3175C39.7358 60.6049 39.3443 60.5081 38.9624 60.444C38.9978 60.6454 39.0372 60.8164 39.0563 60.9896C39.1953 62.2772 38.6412 63.2329 37.447 63.7791C36.9959 63.985 36.5172 64.0615 36.0284 64.1008C35.7854 64.12 35.5727 64.3056 35.5497 64.5053C35.5261 64.7078 35.6532 64.9159 35.9074 64.9766C36.2072 65.0481 36.52 65.0683 36.8277 65.1038C37.4881 65.1791 38.1558 65.2135 38.8082 65.3316C39.7949 65.5093 40.3456 66.3705 40.1717 67.3616C40.0171 68.2436 39.5063 68.8855 38.7942 69.3776C37.5944 70.209 36.2781 70.452 34.8764 70.0279C34.0748 69.7849 33.5095 69.2578 33.3143 68.4051C33.2164 67.9781 33.3205 67.5917 33.6417 67.302C34.0236 66.9589 34.4393 66.6529 34.8392 66.3289L34.9686 66.199L34.8201 66.0949C34.4123 65.9014 34.0861 65.6365 33.9595 65.1763C33.9162 65.0205 33.9612 64.9181 34.0934 64.8383C34.3184 64.7027 34.5422 64.5649 34.7644 64.4248C34.8691 64.3596 34.9726 64.2921 35.0699 64.2167C35.2026 64.1155 35.1908 64.0401 35.0322 63.9816C34.6632 63.8455 34.3352 63.648 34.081 63.3443C33.6563 62.8375 33.5359 62.2339 33.5708 61.5966C33.6254 60.601 34.1659 59.9451 35.0446 59.5232C36.0891 59.022 37.1371 58.9905 38.2019 59.4473C38.5956 59.616 39.0108 59.652 39.4332 59.6228C39.7488 59.6003 40.0244 59.481 40.2713 59.2228ZM36.4221 66.3559C35.638 66.3491 35.3922 66.4459 34.9321 66.9145C34.4168 67.4398 34.4196 68.1683 34.9337 68.6959C35.3241 69.0958 35.8113 69.2831 36.3529 69.3394C36.9858 69.4046 37.609 69.3782 38.1839 69.0615C38.797 68.7223 39.1019 68.0923 38.9641 67.4578C38.8499 66.9341 38.464 66.6945 37.9943 66.5567C37.4599 66.4003 36.9076 66.3705 36.4221 66.3559ZM34.882 61.3451C34.9107 61.5628 34.9225 61.7833 34.9709 61.9965C35.0963 62.5489 35.3365 63.0343 35.8861 63.2801C36.5312 63.5698 37.3553 63.4455 37.6377 62.5399C37.8306 61.9372 37.8081 61.2862 37.5741 60.6983C37.475 60.4295 37.2964 60.1972 37.0622 60.0323C36.502 59.6413 35.4912 59.5896 35.0794 60.4536C34.9456 60.7343 34.8932 61.033 34.882 61.3451Z" fill="#4F382B"/>
<path fill-rule="evenodd" clip-rule="evenodd" d="M26.9676 59.0839C26.9884 59.1801 27.0301 59.2892 27.0312 59.3989C27.0329 59.6076 27.0104 59.8163 26.9986 60.0249V60.2061L27.1752 60.0711C27.6589 59.6728 28.1787 59.3336 28.7839 59.1508C29.8763 58.8218 30.9676 59.4197 31.3236 60.5323C31.4586 60.9553 31.5121 61.3901 31.5171 61.8323C31.5284 62.8144 31.5351 63.7965 31.5453 64.7786C31.5486 65.1313 31.5891 65.1943 31.9227 65.2961C32.1125 65.3528 32.3061 65.3958 32.5021 65.4249C32.6095 65.4418 32.6556 65.484 32.65 65.5892L32.6511 65.6859C32.6472 66.0926 32.6191 66.1112 32.2248 66.1101C31.2809 66.1084 30.3376 66.114 29.3937 66.1219C29.1124 66.1241 29.1119 66.1326 29.0838 65.8547L29.0781 65.6949C29.0956 65.4553 29.1012 65.4576 29.3369 65.4227C29.4955 65.3991 29.653 65.3625 29.8077 65.322C29.9669 65.2809 30.0434 65.1634 30.0648 65.0059C30.0754 64.926 30.0895 64.8461 30.0889 64.7663C30.0754 63.693 30.0929 62.6186 30.0344 61.5471C29.9871 60.6803 29.3256 60.1639 28.4554 60.2229C28.036 60.252 27.6328 60.3967 27.2905 60.6409C27.0582 60.8034 27.0115 61.038 27.0126 61.2906C27.0171 62.2941 27.0267 63.2976 27.0374 64.3016C27.0396 64.5216 27.0458 64.7415 27.0666 64.9598C27.0886 65.1983 27.1724 65.2944 27.4064 65.3462C27.6303 65.3957 27.8586 65.4244 28.0977 65.4643L28.1179 65.6488C28.1258 66.0791 28.0808 66.1112 27.6629 66.1095C26.6869 66.1056 25.711 66.1118 24.7356 66.1224C24.5821 66.1247 24.5168 66.0763 24.5208 65.9267L24.5185 65.8626C24.4932 65.475 24.5044 65.4604 24.8712 65.3974L25.0444 65.3625C25.4416 65.2731 25.5434 65.1673 25.549 64.764C25.5676 63.4866 25.5743 62.2097 25.5873 60.9323C25.5889 60.7489 25.5198 60.6066 25.3488 60.5306C25.1088 60.4255 24.8674 60.3235 24.6248 60.2246C24.4909 60.1695 24.3379 60.1346 24.3329 59.9496C24.3295 59.8191 24.469 59.7038 24.6597 59.6649C25.0428 59.5873 25.4292 59.5226 25.8078 59.4276C26.1846 59.3336 26.5548 59.2076 26.9676 59.0839Z" fill="#4F372B"/>
<path fill-rule="evenodd" clip-rule="evenodd" d="M48.0698 62.4206C48.0518 63.6137 47.7419 64.5784 46.8981 65.3023C45.8294 66.2209 44.1621 66.5331 42.7992 65.8463C42.2176 65.5532 41.7901 65.1038 41.5116 64.5204C41.0847 63.6233 40.9778 62.6799 41.2006 61.7136C41.4211 60.7579 41.9999 60.0654 42.8661 59.6171C43.7571 59.1564 44.6954 58.9764 45.6848 59.2183C46.9364 59.5238 47.8358 60.5441 48.0147 61.8435C48.0467 62.0713 48.0591 62.3019 48.0698 62.4206ZM46.6203 63.0669L46.5719 63.0613C46.5719 62.9488 46.5781 62.8363 46.5707 62.7238C46.5297 62.0229 46.3722 61.3553 45.9661 60.7686C45.5807 60.2128 45.0559 59.8849 44.3731 59.8371C43.6086 59.7831 42.9662 60.2106 42.7407 60.9913C42.4021 62.1636 42.5168 63.306 43.1119 64.3798C43.3713 64.8478 43.7554 65.1932 44.2701 65.3749C45.2787 65.7298 46.1731 65.2703 46.4357 64.2375C46.5325 63.8561 46.5606 63.4573 46.6203 63.0669Z" fill="#4F382B"/>
<path fill-rule="evenodd" clip-rule="evenodd" d="M23.2939 62.5129C23.2731 63.369 23.0712 64.1604 22.5424 64.8484C21.976 65.5853 21.1975 65.979 20.3121 66.1449C19.2653 66.3407 18.2821 66.1629 17.4411 65.4604C17.0417 65.1263 16.7689 64.6982 16.5889 64.2111C16.2936 63.4123 16.2199 62.5939 16.4016 61.7597C16.5957 60.867 17.0997 60.1847 17.881 59.7268C18.7844 59.1986 19.7592 58.9629 20.8004 59.2003C22.1391 59.5063 22.912 60.3788 23.1977 61.6995C23.2551 61.9661 23.263 62.2418 23.2939 62.5129ZM21.8281 63.0776L21.7892 63.072V62.9111C21.7673 62.1259 21.6137 61.3778 21.1452 60.7253C20.7981 60.2409 20.3335 59.9372 19.7378 59.8523C18.7669 59.7139 18.1324 60.2899 17.9221 61.0723C17.6476 62.0944 17.7336 63.1041 18.1583 64.0733C18.4232 64.6774 18.8417 65.1482 19.4847 65.3766C20.4871 65.7326 21.3949 65.2613 21.6486 64.2324C21.742 63.8561 21.7701 63.4635 21.8281 63.0776Z" fill="#4F372B"/>
<path fill-rule="evenodd" clip-rule="evenodd" d="M46.6619 18.8685C47.3521 20.8637 47.8482 22.9005 48.0119 25.011C48.2144 27.63 48.1221 30.231 47.5698 32.8067L47.4989 33.0126C47.3256 33.0131 47.149 32.9912 46.9797 33.0176C45.5493 33.2426 44.1205 33.4755 42.6912 33.7073C41.2135 33.9469 39.7347 34.1769 38.2598 34.4323C37.7373 34.5223 37.0904 34.4149 36.8794 35.1371L36.7782 35.1714L36.8496 30.8526L36.7771 20.4317L37.4656 20.3136C38.5911 20.1296 39.7167 19.9423 40.8439 19.7629C42.1883 19.5497 43.5338 19.3416 44.8793 19.1334C45.4733 19.0423 46.0679 18.9574 46.6619 18.8685Z" fill="#439934"/>
<path fill-rule="evenodd" clip-rule="evenodd" d="M35.3573 47.7625C34.6311 47.1381 33.8796 46.5413 33.1838 45.8843C29.4387 42.3518 26.6988 38.1932 25.3493 33.1796C24.9775 31.8004 24.73 30.3981 24.6501 28.9727C24.5939 27.9748 24.5134 26.9685 24.5843 25.9757C24.7716 23.3359 25.1536 20.7214 25.9276 18.1783L25.9703 18.1193C26.0457 18.2194 26.1537 18.3083 26.1919 18.4213C26.9479 20.6466 27.6978 22.8741 28.4442 25.1033C30.7893 32.1069 33.1315 39.1123 35.4805 46.1149C35.5266 46.2516 35.6453 46.3635 35.7308 46.4867L35.3573 47.7625Z" fill="#45A538"/>
<path fill-rule="evenodd" clip-rule="evenodd" d="M46.6619 18.8685C46.0673 18.9568 45.4728 19.0423 44.8793 19.1334C43.5338 19.3415 42.1883 19.5497 40.8439 19.7629C39.7173 19.9417 38.5917 20.129 37.4656 20.3135L36.7771 20.4317L36.7714 19.9828C36.7484 19.6138 36.7101 19.2448 36.7051 18.8758L36.628 11.8142C36.61 10.341 36.583 8.8678 36.5532 7.39517C36.538 6.47988 36.5116 5.56481 36.4739 4.65017C36.4514 4.15911 36.3721 3.6703 36.3406 3.17924C36.322 2.89686 36.3468 2.61224 36.3529 2.32874C36.7039 3.0088 37.0476 3.69392 37.4082 4.36892C37.978 5.43599 38.8864 6.22236 39.7049 7.08017C42.937 10.4726 45.2314 14.4146 46.6619 18.8685Z" fill="#46A037"/>
<path fill-rule="evenodd" clip-rule="evenodd" d="M36.7788 35.1714L36.88 35.1371C37.0909 34.4149 37.7378 34.5223 38.2604 34.4323C39.7353 34.1769 41.2141 33.9469 42.6918 33.7072C44.1211 33.4761 45.5498 33.2432 46.9803 33.0176C47.1496 32.9912 47.3262 33.0131 47.4994 33.0126C47.2323 33.9666 47.0219 34.9414 46.6827 35.8689C46.2974 36.9208 45.8316 37.9479 45.3372 38.9548C44.5965 40.4563 43.6802 41.8645 42.6074 43.1499C41.7828 44.1411 40.8636 45.0585 39.9428 45.9636C39.4332 46.4636 38.8336 46.8714 38.2744 47.3214L38.1293 47.2224L37.6079 46.7769L37.0684 45.5934C36.6999 44.2133 36.4987 42.7939 36.4694 41.3657L36.4795 41.1249L36.5532 40.0821C36.5774 39.726 36.61 39.3705 36.6252 39.0144C36.6792 37.7342 36.7276 36.4528 36.7788 35.1714Z" fill="#409433"/>
<path fill-rule="evenodd" clip-rule="evenodd" d="M36.7787 35.1714C36.7281 36.4528 36.6797 37.7347 36.6252 39.0161C36.61 39.3727 36.5779 39.7283 36.5532 40.0838L36.2247 40.2081C35.4946 38.0588 34.7639 35.9319 34.0495 33.8001C32.8677 30.2726 31.7005 26.7401 30.5204 23.2116C29.5674 20.3638 28.6078 17.5183 27.6415 14.6751C27.5959 14.5423 27.4666 14.4377 27.3766 14.3201L29.4803 10.4518C29.5529 10.5773 29.6479 10.6948 29.6935 10.8298C30.6666 13.7098 31.6381 16.5904 32.6011 19.4738C33.8543 23.2256 35.0991 26.9792 36.3512 30.7316C36.4013 30.8813 36.4834 31.0196 36.5622 31.1878L36.8502 30.8526L36.7787 35.1714Z" fill="#4FAA41"/>
<path fill-rule="evenodd" clip-rule="evenodd" d="M27.376 14.3201C27.4666 14.4377 27.5959 14.5423 27.6409 14.6751C28.6073 17.5183 29.5669 20.3638 30.5198 23.2116C31.6999 26.7401 32.8671 30.2726 34.0489 33.8001C34.7633 35.9319 35.494 38.0582 36.2241 40.2081L36.5526 40.0838L36.4789 41.1266L36.412 41.3668C36.2978 42.5081 36.2016 43.6517 36.0621 44.7908C35.9924 45.3617 35.8433 45.9219 35.7303 46.4867C35.6453 46.3635 35.5261 46.2516 35.4799 46.1149C33.1304 39.1123 30.7887 32.1069 28.4436 25.1033C27.6975 22.8744 26.9468 20.6471 26.1914 18.4213C26.1531 18.3083 26.0451 18.2194 25.9698 18.1193L27.376 14.3201Z" fill="#4AA73C"/>
<path fill-rule="evenodd" clip-rule="evenodd" d="M36.8496 30.8526L36.5616 31.1878C36.4829 31.0196 36.4007 30.8813 36.3507 30.7316C35.0986 26.9792 33.8537 23.2256 32.6005 19.4738C31.6364 16.5907 30.6672 13.7094 29.6929 10.8298C29.6474 10.6948 29.5523 10.5773 29.4798 10.4518L32.0813 7.02957C32.1634 7.1387 32.2804 7.23601 32.3226 7.3592C33.0449 9.4742 33.7604 11.5909 34.4725 13.7093C35.1374 15.6881 35.7921 17.6693 36.4649 19.6448C36.5099 19.7769 36.6668 19.8703 36.7714 19.9828L36.7771 20.4317L36.8496 30.8526Z" fill="#57AE47"/>
<path fill-rule="evenodd" clip-rule="evenodd" d="M36.7714 19.9828C36.6662 19.8709 36.5099 19.7775 36.4649 19.6448C35.7927 17.6693 35.1374 15.6881 34.4725 13.7093C33.7609 11.5909 33.0443 9.47416 32.3226 7.35919C32.2804 7.236 32.1634 7.13869 32.0813 7.02957C32.9273 6.201 33.7469 5.34263 34.6272 4.55232C35.4096 3.85032 36.0385 3.09769 36.0677 1.98788L36.1296 1.76682L36.3524 2.32819C36.3467 2.61169 36.3214 2.89632 36.34 3.17869C36.3721 3.66975 36.4514 4.15857 36.4733 4.64963C36.5144 5.56369 36.5341 6.47944 36.5526 7.39463C36.5824 8.86725 36.6094 10.3404 36.6274 11.8136L36.7045 18.8753C36.7101 19.2448 36.7489 19.6138 36.7714 19.9828Z" fill="#60B24F"/>
<path fill-rule="evenodd" clip-rule="evenodd" d="M35.7308 46.4861C35.8439 45.9214 35.9929 45.3611 36.0627 44.7902C36.2022 43.6517 36.2984 42.5076 36.4126 41.3663L36.4413 41.3618L36.4694 41.3668C36.4987 42.795 36.6999 44.2145 37.0684 45.5946C36.9925 45.6947 36.8862 45.783 36.8457 45.8955C36.5335 46.7764 36.2387 47.6646 35.9249 48.5449C35.8821 48.6653 35.7618 48.7592 35.6779 48.8644L35.3568 47.7619L35.7308 46.4861Z" fill="#A9AA88"/>
<path fill-rule="evenodd" clip-rule="evenodd" d="M35.6779 48.8649C35.7617 48.7592 35.8821 48.6658 35.9249 48.5454C36.2387 47.6651 36.5335 46.7769 36.8457 45.8961C36.8856 45.7836 36.9925 45.6952 37.0684 45.5951L37.6079 46.7786C37.5016 46.9294 37.3542 47.0661 37.2951 47.2342L36.2624 50.2672C36.2196 50.3893 36.0751 50.4748 35.9772 50.5777L35.6779 48.8649Z" fill="#B6B598"/>
<path fill-rule="evenodd" clip-rule="evenodd" d="M35.9772 50.5772C36.0745 50.4743 36.2196 50.3888 36.2624 50.2667L37.2951 47.2337C37.3536 47.0655 37.5016 46.9288 37.6079 46.7781L38.1299 47.223C37.8779 47.4722 37.7378 47.7602 37.8222 48.1241L37.6636 48.6433C37.5916 48.7322 37.4869 48.8098 37.4515 48.9116C37.0909 49.9444 36.7472 50.9828 36.3839 52.0149C36.3377 52.1454 36.2101 52.2484 36.1206 52.3643L35.9772 50.5772Z" fill="#C2C1A7"/>
<path fill-rule="evenodd" clip-rule="evenodd" d="M36.1201 52.3637C36.2101 52.2478 36.3377 52.1449 36.3833 52.0144C36.7467 50.9822 37.0909 49.9438 37.4509 48.9111C37.4864 48.8093 37.591 48.7322 37.663 48.6428L37.4442 51.0255C37.3857 51.093 37.3013 51.1521 37.2732 51.2303L36.5453 53.316C36.4941 53.4583 36.3962 53.5854 36.3197 53.7188C36.2517 53.6299 36.1302 53.5438 36.1246 53.4516C36.1032 53.0905 36.1184 52.7265 36.1201 52.3637Z" fill="#CECDB7"/>
<path fill-rule="evenodd" clip-rule="evenodd" d="M36.3203 53.7193C36.3968 53.586 36.4947 53.4589 36.5459 53.3166L37.2737 51.2308C37.3019 51.1521 37.3868 51.0936 37.4447 51.0261L37.4504 52.5898L36.9267 53.9325L36.3203 53.7193Z" fill="#DBDAC7"/>
<path fill-rule="evenodd" clip-rule="evenodd" d="M36.9267 53.9325L37.4504 52.5898L37.5584 54.1783L36.9267 53.9325Z" fill="#EBE9DC"/>
<path fill-rule="evenodd" clip-rule="evenodd" d="M37.8216 48.1241C37.7378 47.7607 37.8773 47.4727 38.1293 47.223L38.2744 47.322L37.8216 48.1241Z" fill="#CECDB7"/>
<path fill-rule="evenodd" clip-rule="evenodd" d="M36.4694 41.3674L36.4413 41.3623L36.4126 41.3668L36.4795 41.1266L36.4694 41.3674Z" fill="#4FAA41"/>
</svg>
