<svg width="72" height="72" viewBox="0 0 72 72" fill="none" xmlns="http://www.w3.org/2000/svg">
<g clip-path="url(#clip0_19_165)">
<path d="M21.4185 47.5111L23.6067 57.9268C24.0983 60.2916 24.3033 61.9425 24.2212 62.8834C25.4179 58.1814 26.2541 53.0572 26.7298 47.5111H29.3609C28.2296 56.5402 26.7374 63.1015 24.8852 67.1946C23.4421 70.3487 21.8612 71.9257 20.1397 71.9257C19.6807 71.9257 19.1148 71.7223 18.4433 71.3184V69.1419C18.7714 69.2124 19.1563 69.2502 19.599 69.2502C20.4021 69.2502 21.0494 68.9236 21.5419 68.2719C22.1315 67.4778 22.4267 66.5853 22.4267 65.5961C22.4267 64.9207 22.1965 63.5345 21.7382 61.4377L18.6894 47.5111H21.4185ZM4.67192 41.1093L8.67974 59.0487H8.70449L12.7369 41.1093H16.0315C16.7529 50.006 17.179 58.1461 17.3098 65.5245H14.5321C14.4344 58.6272 14.1637 52.1414 13.721 46.066H13.6968L9.4671 65.5245H7.35181L3.14769 46.066H3.12294C2.81103 51.9006 2.61472 58.3864 2.53288 65.5245H-6.10352e-05C0.163626 56.8433 0.573267 48.7056 1.22886 41.1093H4.67192Z" fill="#00758F"/>
<path d="M49.57 40.747C53.8811 40.747 56.0368 44.7877 56.0368 52.8651C56.0368 57.2544 55.3885 60.5699 54.0932 62.8098C53.8597 63.2191 53.6017 63.5727 53.33 63.9003L56.3809 66.1133L56.3779 66.1131L55.2947 68.8574L51.3216 65.4564C50.663 65.7426 49.9384 65.8856 49.1488 65.8856C47.032 65.8856 45.4508 64.9805 44.4054 63.1727C43.2579 61.1728 42.6844 58.0243 42.6844 53.7328C42.6844 49.3683 43.3316 46.0653 44.6273 43.8226C45.8074 41.7711 47.4552 40.747 49.57 40.747ZM36.3681 40.7825C37.9089 40.7825 39.31 41.3874 40.5719 42.5928L39.931 44.6883C38.8511 44.0149 37.7864 43.6768 36.7365 43.6768C35.8846 43.6768 35.2282 43.9775 34.7706 44.5828C34.3105 45.1828 34.0258 45.9548 34.0258 46.8959C34.0258 48.3421 34.7281 49.5962 36.0248 50.6558C36.4496 50.9965 36.873 51.3411 37.2948 51.6896L37.3916 51.7694L37.4401 51.8095L37.537 51.8893L37.5853 51.9293L37.6821 52.0094C38.6637 52.8212 39.5873 53.596 39.5873 53.596C40.8838 54.9463 41.5302 56.3859 41.5302 58.7569C41.5302 60.8276 41.0129 62.5273 39.9819 63.8574C38.9501 65.1814 37.564 65.8453 35.8281 65.8453C34.2046 65.8453 32.6311 65.0812 31.107 63.5657L31.82 61.4684C33.1316 62.4329 34.3185 62.9146 35.3843 62.9146C36.3838 62.9146 37.1663 62.5872 37.7323 61.9406C38.2972 61.2893 38.6357 60.381 38.6357 59.2292C38.6357 57.7795 37.9483 56.5402 36.6873 55.5006C36.2926 55.1807 35.8991 54.8577 35.5068 54.5316L35.4102 54.4514C35.2327 54.3043 35.054 54.1553 34.8789 54.0095L34.784 53.9303C33.9325 53.2197 33.1963 52.599 33.1963 52.599C31.9357 51.2462 31.3036 49.7949 31.3036 47.4034C31.3036 45.4256 31.775 43.8269 32.7163 42.6108C33.6599 41.3919 34.8773 40.7825 36.3681 40.7825ZM61.1033 41.1093V62.5212H66.3399V65.5245H58.4475V41.1093H61.1033ZM69.2497 62.5304V63.0379H68.674V65.5218H68.2339V63.0379H67.6358V62.5304H69.2499H69.2497ZM70.3129 62.5304L70.8657 64.5695L71.3735 62.5304H71.9974V65.5218H71.5826V63.2453L71.0046 65.5218H70.7055L70.1265 63.2453H70.1043V65.5218H69.7118V62.5304H70.313H70.3129ZM49.2988 43.7496C46.7583 43.7496 45.4873 46.8256 45.4873 52.9734C45.4873 56.495 45.8241 59.0487 46.4965 60.6403C47.1192 62.1133 48.0944 62.8484 49.4223 62.8484C51.9628 62.8484 53.2337 59.7484 53.2337 53.5515C53.2337 50.0792 52.8969 47.5474 52.2254 45.955C51.602 44.4853 50.6272 43.7496 49.299 43.7496H49.2988Z" fill="#F29111"/>
<path d="M42.64 1.51278C43.4827 -1.52525 46.4295 0.775449 47.5731 1.83668C47.8534 2.10219 48.1748 2.66313 48.4962 2.87046C48.9975 2.89935 49.4984 2.9569 50.0006 2.98764C50.9425 3.31237 51.8248 3.57767 52.567 4.19782C56.0162 7.17788 58.2616 10.2147 60.3281 15.2307C60.7696 16.2932 60.9903 17.4429 61.351 18.5927C61.8516 20.3064 62.4141 22.1054 62.9952 23.7259C63.2553 24.4942 63.4566 25.3485 63.8178 25.9973C63.9589 26.294 64.3595 26.3815 64.599 26.5587C65.261 27.0614 66.0632 27.4431 66.6859 28.0331C67.8487 29.0968 68.973 30.3644 69.9951 31.662C70.376 32.1629 70.6356 32.872 70.9985 33.4018V33.6691C70.6764 33.8142 70.3553 33.9627 70.034 34.0817C69.3321 34.3462 68.7104 34.2864 68.0295 34.5511C67.6088 34.7302 67.0864 34.9664 66.6451 35.0264L66.6859 35.0866C66.9455 36.1749 68.35 37.0599 68.9924 37.7108C69.7726 38.5369 70.4955 39.5387 71.0774 40.6892C71.2784 40.9828 71.4793 41.25 71.6793 41.5427C71.8191 41.8394 71.8585 42.2231 71.9999 42.4876V42.5771C71.8433 42.496 71.7306 42.3413 71.6239 42.1796L71.5602 42.082C71.4965 41.985 71.4322 41.8897 71.359 41.8111C70.9163 41.3676 70.4767 40.837 70.034 40.4245C69.2729 39.7161 68.3902 39.3049 67.6088 38.5938C67.1669 38.181 66.7458 37.7108 66.3246 37.2384C65.9428 36.8243 65.5223 36.0292 65.2824 35.4392C65.1411 35.1133 65.1217 34.7302 64.9603 34.4943C64.9891 34.1005 65.235 33.9835 65.4832 33.8874L65.5403 33.8653C65.626 33.8327 65.7098 33.8001 65.7829 33.757C66.8255 33.1076 68.0685 32.872 69.6736 32.931C69.6131 32.3397 68.6102 31.603 68.29 31.249C67.6473 30.5694 66.9668 29.8604 66.2851 29.2419C65.9238 28.918 65.3013 28.6815 64.9011 28.4168C64.3595 28.0921 63.1559 27.7676 62.8558 27.1491C62.346 26.1741 61.9798 25.0112 61.6243 23.8365L61.5276 23.5159C61.4953 23.409 61.463 23.3023 61.4306 23.1955C61.0104 21.7809 60.4884 20.306 60.0672 18.8576C59.847 18.151 59.7459 17.5308 59.5047 16.8531C58.0412 12.6944 55.8752 9.21265 53.249 6.76403C52.386 5.96729 51.4237 5.22996 50.3614 4.72885C49.7594 4.4621 49.0369 4.6096 48.3955 4.40495H47.9733C47.613 4.256 47.3122 3.69568 47.0311 3.40025C46.4103 2.78175 45.7884 2.36646 45.0459 1.92518C44.7858 1.74817 44.0428 1.33598 43.7835 1.66049C43.6229 1.7197 43.5415 1.80862 43.502 2.04504C43.3423 2.39782 43.4827 2.92926 43.5822 3.2546C43.8834 4.19741 44.3041 4.75773 44.6861 5.55447C45.0258 6.26106 45.4478 7.05781 45.6887 7.82609C46.2085 9.47755 46.4505 11.3073 46.9321 12.9585C47.1107 13.5795 47.3932 14.2861 47.6533 14.8462C47.8736 15.2908 48.2743 15.6122 48.3955 16.175C48.6371 16.765 48.0338 18.7119 47.8941 19.3302C47.3717 21.7495 47.473 25.1125 48.0746 27.2096L48.1066 27.3201L48.1387 27.4322C48.3583 28.2002 48.5935 29.0273 49.1775 29.2421C49.2177 29.1835 49.1775 29.2142 49.2572 29.1835C49.3985 27.5603 49.4383 25.9971 49.8197 24.7271C50.0401 23.933 50.4801 23.3717 50.7817 22.7235C50.9828 22.9001 50.9828 23.4325 51.1026 23.7849C51.3636 24.6988 51.6439 25.7009 51.9657 26.6175C52.626 28.5051 53.3691 30.3353 54.211 31.9865C54.493 32.5763 54.893 33.2256 55.2539 33.7568C55.4146 33.9625 55.5946 34.0813 55.7154 34.346H55.7548V34.4351C55.1532 34.1098 54.7718 33.1967 54.292 32.6636C53.3886 31.6616 52.3068 30.1568 51.6841 28.7129C51.4237 27.884 51.1422 27.0895 50.8615 26.2647V26.2051C50.7415 26.4407 50.7817 26.6746 50.7217 27.0311C50.4613 28.5051 50.6618 30.1867 49.7594 30.7169C48.7365 31.3379 47.9735 29.7149 47.6533 28.9774C46.6301 26.5294 46.3498 22.3996 47.0713 19.0659C47.2317 18.328 47.2535 17.4429 47.5333 16.8537C47.4728 16.3211 47.193 16.1754 47.0311 15.849C46.7504 15.2912 46.5101 14.6413 46.2903 14.0218C45.8682 12.8116 45.5678 11.3656 45.2473 10.0678C45.1064 9.53779 45.066 9.00573 44.9256 8.504C44.6859 7.7382 44.2442 6.96992 43.9035 6.29242C43.4421 5.31867 42.0983 3.4314 42.64 1.51278ZM49.2173 7.29238C49.2709 7.37118 49.3356 7.44009 49.4025 7.50796L49.4832 7.58925C49.5908 7.69859 49.695 7.81371 49.7588 7.9705C49.8601 8.17804 49.8789 8.3829 50.0001 8.59085C50.0001 9.29992 49.8601 9.77132 49.5773 10.0651C49.5773 10.0651 49.558 10.096 49.5382 10.1249C49.3779 9.65228 49.2374 9.18212 49.076 8.70989C48.8771 8.2977 48.596 7.9707 48.434 7.49971H48.3951V7.4405C48.6371 7.35282 48.8771 7.29238 49.2173 7.29238Z" fill="#00758F"/>
</g>
<defs>
<clipPath id="clip0_19_165">
<rect width="72" height="72" fill="white"/>
</clipPath>
</defs>
</svg>
