<svg width="72" height="72" viewBox="0 0 72 72" fill="none" xmlns="http://www.w3.org/2000/svg">
<g clip-path="url(#clip0_19_101)">
<path d="M35.5936 71.7922C35.3499 71.7922 35.1223 71.6863 34.911 71.5008L32.7494 69.4073C32.4243 69.1156 32.5869 69.0097 32.6845 68.9567C33.1232 68.7183 33.2045 68.6651 33.6595 68.2413C33.7083 68.1881 33.7735 68.2147 33.8221 68.2677L35.4799 69.8843C35.5449 69.9372 35.6262 69.9372 35.6748 69.8843L42.1598 63.7624C42.2247 63.7095 42.2574 63.6033 42.2574 63.471V51.2539C42.2574 51.1211 42.2247 51.0154 42.1598 50.9622L35.6748 44.867C35.6099 44.8138 35.5286 44.8138 35.4799 44.867L28.995 50.9622C28.93 51.0152 28.8974 51.1477 28.8974 51.2537V63.4707C28.8974 63.5769 28.93 63.7092 28.995 63.7624L30.7666 65.4319C31.7255 66.2269 32.3268 65.2994 32.3268 64.3719V52.3137C32.3268 52.1548 32.4081 51.9957 32.5219 51.9957H33.3507C33.4483 51.9957 33.5458 52.1282 33.5458 52.3137V64.3719C33.5458 66.4654 32.8469 67.6846 31.6279 67.6846C31.2542 67.6846 30.9617 67.6846 30.1327 67.0219L28.4262 65.4319C28.0036 65.0346 27.7436 64.2923 27.7436 63.4973V51.2803C27.7436 50.4853 28.0036 49.7431 28.4262 49.3457L34.911 43.2238C35.3174 42.8528 35.87 42.8528 36.2763 43.2238L42.7611 49.3457C43.1837 49.7431 43.4438 50.4853 43.4438 51.2803V63.4973C43.4438 64.2923 43.1837 65.0346 42.7611 65.4319L36.2763 71.5538C36.0649 71.7129 35.8211 71.7922 35.5936 71.7922ZM37.5927 63.3914C34.7485 63.3914 34.1634 61.2713 34.1634 59.4692C34.1634 59.3101 34.2447 59.1512 34.3585 59.1512H35.2036C35.3011 59.1512 35.3823 59.2571 35.3823 59.4163C35.5124 60.8207 35.8862 61.5098 37.609 61.5098C38.9742 61.5098 39.5595 61.0062 39.5595 59.8137C39.5595 59.1246 39.3968 58.6213 37.2677 58.2767C35.4961 57.985 34.3909 57.3491 34.3909 55.0435C34.3909 52.8968 35.4962 51.6247 37.349 51.6247C39.4292 51.6247 40.4533 52.7909 40.5834 55.3347C40.5834 55.4145 40.567 55.4939 40.5346 55.5734C40.5019 55.6264 40.4533 55.6794 40.4045 55.6794H39.5593C39.478 55.6794 39.3968 55.5734 39.3806 55.4409C39.1855 53.9835 38.6817 53.5063 37.349 53.5063C35.8537 53.5063 35.6748 54.3545 35.6748 54.9903C35.6748 55.759 35.8862 55.9974 37.9015 56.4214C39.9006 56.8456 40.8434 57.4551 40.8434 59.7341C40.8271 62.0663 39.6569 63.3914 37.5927 63.3914Z" fill="#539E43"/>
<path d="M15.4727 24.0102C15.4727 23.5333 15.3101 23.0825 15.0501 22.844L8.15891 16.3778C8.045 16.2716 7.91506 16.2186 7.78513 16.192H7.72002C7.59008 16.192 7.46 16.2716 7.34624 16.3778L0.455049 22.844C0.194893 23.0825 0.0324707 23.533 0.0324707 24.0102L0.0487832 41.395C0.0487832 41.6335 0.130064 41.8719 0.260002 41.9781C0.39008 42.1106 0.552502 42.1106 0.666408 41.9781L4.76211 38.1619C5.02213 37.9234 5.18469 37.4728 5.18469 36.9959V28.8599C5.18469 28.3829 5.34711 27.9324 5.60727 27.6939L7.34624 26.0507C7.47631 25.9182 7.62256 25.865 7.76881 25.865C7.91506 25.865 8.06131 25.9182 8.17522 26.0507L9.91419 27.6939C10.1743 27.9324 10.3368 28.3827 10.3368 28.8599V36.9959C10.3368 37.4728 10.4993 37.9234 10.7593 38.1619L14.855 41.9781C14.9183 42.0431 14.9916 42.0775 15.0663 42.0775C15.1411 42.0775 15.2144 42.0431 15.2776 41.9781C15.4077 41.8719 15.489 41.6335 15.489 41.395L15.4727 24.0102ZM48.5959 0.0793801C48.466 -0.0267855 48.3034 -0.0267855 48.1895 0.0793801C48.0596 0.211915 47.9783 0.423788 47.9783 0.662259V17.8884C47.9783 18.0473 47.9296 18.2062 47.832 18.3123C47.7346 18.3917 47.637 18.3917 47.5395 18.3123L45.8167 16.6958C45.6904 16.5785 45.5476 16.5169 45.4022 16.5169C45.2569 16.5169 45.1141 16.5785 44.9877 16.6958L38.0966 23.1886C37.8365 23.4271 37.674 23.8777 37.674 24.3546V37.3137C37.674 37.7906 37.8365 38.2414 38.0966 38.4799L44.9877 44.9728C45.1141 45.09 45.2569 45.1517 45.4022 45.1517C45.5476 45.1517 45.6904 45.09 45.8167 44.9728L52.7079 38.4799C52.9679 38.2414 53.1305 37.7909 53.1305 37.3137V5.00863C53.1305 4.50509 52.9679 4.05474 52.7079 3.81604L48.5959 0.0793801ZM47.9621 33.0471C47.9621 33.1797 47.9296 33.2856 47.8645 33.3386L45.5079 35.5646C45.475 35.5908 45.4389 35.6044 45.4022 35.6044C45.3656 35.6044 45.3295 35.5908 45.2966 35.5646L42.94 33.3386C42.8749 33.2856 42.8424 33.1531 42.8424 33.0471V28.5948C42.8424 28.4623 42.8749 28.3563 42.94 28.3034L45.2966 26.0771C45.3295 26.0509 45.3656 26.0373 45.4022 26.0373C45.4389 26.0373 45.475 26.0509 45.5079 26.0771L47.8645 28.3034C47.9296 28.3561 47.9621 28.4889 47.9621 28.5948V33.0471ZM71.5286 28.4889C71.7888 28.2504 71.935 27.7998 71.935 27.3227V24.1691C71.935 23.6922 71.7725 23.2416 71.5286 23.0031L64.6862 16.5369C64.5599 16.4196 64.4171 16.358 64.2717 16.358C64.1264 16.358 63.9835 16.4196 63.8572 16.5369L56.966 23.0295C56.7059 23.268 56.5435 23.7185 56.5435 24.1955V37.1548C56.5435 37.6317 56.706 38.0823 56.966 38.3208L63.8084 44.6811C64.0686 44.9196 64.3774 44.9196 64.6212 44.6811L68.7656 40.9183C68.8957 40.8121 68.977 40.5736 68.977 40.3352C68.977 40.0967 68.8957 39.8582 68.7656 39.7521L61.8419 33.2592C61.7119 33.1267 61.6306 32.9148 61.6306 32.6763V28.6216C61.6306 28.3832 61.7119 28.1447 61.8419 28.0385L64.0035 26.0244C64.0668 25.9594 64.14 25.925 64.2148 25.925C64.2895 25.925 64.3628 25.9594 64.4261 26.0244L66.5877 28.0385C66.7178 28.1711 66.799 28.3829 66.799 28.6216V31.8018C66.799 32.0403 66.8802 32.2787 67.0103 32.3847C67.0736 32.4496 67.1468 32.4841 67.2216 32.4841C67.2964 32.4841 67.3696 32.4496 67.4329 32.3847L71.5286 28.4889Z" fill="#333333"/>
<path d="M64.166 27.8794C64.1902 27.8534 64.2184 27.8396 64.2473 27.8396C64.2762 27.8396 64.3045 27.8534 64.3286 27.8794L65.6451 29.1249C65.6938 29.1781 65.7263 29.2575 65.7263 29.3634V31.8547C65.7263 31.9607 65.6939 32.0402 65.6451 32.0932L64.3286 33.3388C64.3045 33.3647 64.2762 33.3785 64.2473 33.3785C64.2184 33.3785 64.1902 33.3647 64.166 33.3388L62.8497 32.0932C62.8009 32.0402 62.7684 31.9607 62.7684 31.8547V29.3636C62.7684 29.2575 62.8007 29.1779 62.8497 29.1251L64.166 27.8794Z" fill="#539E43"/>
<path d="M26.9959 16.5901C26.8696 16.4728 26.7268 16.4112 26.5815 16.4112C26.4362 16.4112 26.2934 16.4728 26.1671 16.5901L19.3247 23.0295C19.0645 23.2679 18.9183 23.7185 18.9183 24.1955V37.1018C18.9183 37.5787 19.0808 38.0293 19.3247 38.2678L26.1671 44.7077C26.2934 44.8249 26.4362 44.8865 26.5815 44.8865C26.7268 44.8865 26.8696 44.8249 26.9959 44.7077L33.8384 38.2678C34.0985 38.0293 34.2449 37.5787 34.2449 37.1018V24.1957C34.2449 23.7187 34.0822 23.2682 33.8384 23.0297L26.9959 16.5901Z" fill="url(#paint0_linear_19_101)"/>
</g>
<defs>
<linearGradient id="paint0_linear_19_101" x1="1064.01" y1="514.359" x2="-284.994" y2="1814.32" gradientUnits="userSpaceOnUse">
<stop stop-color="#41873F"/>
<stop offset="0.3288" stop-color="#418B3D"/>
<stop offset="0.6352" stop-color="#419637"/>
<stop offset="0.9319" stop-color="#3FA92D"/>
<stop offset="1" stop-color="#3FAE2A"/>
</linearGradient>
<clipPath id="clip0_19_101">
<rect width="72" height="72" fill="white"/>
</clipPath>
</defs>
</svg>
