<svg width="72" height="72" viewBox="0 0 72 72" fill="none" xmlns="http://www.w3.org/2000/svg">
<path d="M36 31.95C38.8892 31.95 41.2313 29.6079 41.2313 26.7187C41.2313 23.8296 38.8892 21.4875 36 21.4875C33.1109 21.4875 30.7688 23.8296 30.7688 26.7187C30.7688 29.6079 33.1109 31.95 36 31.95Z" fill="#61DAFB"/>
<path d="M36 45.9562C40.1063 49.95 44.1563 52.3125 47.4188 52.3125C48.4875 52.3125 49.5 52.0875 50.3438 51.5812C53.2688 49.8937 54.3375 45.675 53.325 39.6562C53.1563 38.5875 52.9313 37.5187 52.65 36.3937C53.775 36.0562 54.7875 35.7187 55.8 35.3812C61.4813 33.1875 64.6313 30.15 64.6313 26.8312C64.6313 23.4562 61.4813 20.4187 55.8 18.2812C54.7875 17.8875 53.775 17.55 52.65 17.2687C52.9313 16.1437 53.1563 15.075 53.325 14.0062C54.2813 7.87499 53.2125 3.59999 50.2875 1.91249C49.4438 1.40624 48.4313 1.18124 47.3625 1.18124C44.1563 1.18124 40.05 3.54374 35.9438 7.53749C31.8938 3.54374 27.8438 1.18124 24.5813 1.18124C23.5125 1.18124 22.5 1.40624 21.6563 1.91249C18.7313 3.59999 17.6625 7.81874 18.675 13.8375C18.8438 14.9062 19.0688 15.975 19.35 17.1C18.225 17.4375 17.2125 17.775 16.2 18.1125C10.5188 20.3062 7.36877 23.3437 7.36877 26.6625C7.36877 30.0375 10.5188 33.075 16.2 35.2125C17.2125 35.6062 18.225 35.9437 19.35 36.225C19.0688 37.35 18.8438 38.4187 18.675 39.4875C17.7188 45.5062 18.7875 49.7812 21.6563 51.4125C22.5 51.9187 23.5125 52.1437 24.5813 52.1437C27.8438 52.2562 31.8938 49.8937 36 45.9562ZM32.85 38.3625C33.8625 38.4187 34.9313 38.4187 36 38.4187C37.0688 38.4187 38.1375 38.4187 39.15 38.3625C38.1375 39.7125 37.0688 40.95 36 42.1312C34.9313 40.95 33.8625 39.7125 32.85 38.3625ZM25.875 32.5687C26.4375 33.525 26.9438 34.425 27.5625 35.325C25.8188 35.1 24.1875 34.8187 22.6125 34.4812C23.1188 32.9625 23.6813 31.3875 24.3563 29.8125C24.8063 30.7125 25.3125 31.6687 25.875 32.5687ZM22.6125 19.0125C24.1875 18.675 25.8188 18.3937 27.5625 18.1687C27 19.0687 26.4375 19.9687 25.875 20.925C25.3125 21.8812 24.8063 22.7812 24.3563 23.7375C23.625 22.1062 23.0625 20.5312 22.6125 19.0125ZM25.7063 26.7187C26.4375 25.2 27.225 23.6812 28.125 22.1625C28.9688 20.7 29.925 19.2375 30.8813 17.775C32.5688 17.6625 34.2563 17.6062 36 17.6062C37.8 17.6062 39.4875 17.6625 41.1188 17.775C42.1313 19.2375 43.0313 20.7 43.875 22.1625C44.775 23.6812 45.5625 25.2 46.2938 26.7187C45.5625 28.2375 44.775 29.7562 43.875 31.275C43.0313 32.7375 42.075 34.2 41.1188 35.6625C39.4313 35.775 37.7438 35.8312 36 35.8312C34.2 35.8312 32.5125 35.775 30.8813 35.6625C29.8688 34.2 28.9688 32.7375 28.125 31.275C27.225 29.7562 26.4375 28.2375 25.7063 26.7187ZM47.7 23.6812L46.1813 20.8687C45.6188 19.9125 45.1125 19.0125 44.4938 18.1125C46.2375 18.3375 47.8688 18.6187 49.4438 18.9562C48.9375 20.5312 48.375 22.1062 47.7 23.6812ZM47.7 29.7562C48.375 31.3312 48.9375 32.9062 49.4438 34.425C47.8688 34.7625 46.2375 35.0437 44.4938 35.2687C45.0563 34.3687 45.6188 33.4687 46.1813 32.5125C46.6875 31.6687 47.1938 30.7125 47.7 29.7562ZM48.9938 49.275C48.5438 49.5562 47.9813 49.6687 47.3625 49.6687C44.6063 49.6687 41.175 47.4187 37.8 44.0437C39.4313 42.3 41.0063 40.3312 42.5813 38.1375C45.225 37.9125 47.7563 37.5187 50.1188 36.9562C50.4 37.9687 50.5688 38.9812 50.7375 39.9937C51.525 44.775 50.9063 48.2062 48.9938 49.275ZM51.9188 19.6312C58.2188 21.4312 61.9875 24.1875 61.9875 26.7187C61.9875 28.9125 59.4 31.1062 54.8438 32.85C53.9438 33.1875 52.9313 33.525 51.9188 33.8062C51.1875 31.5 50.2875 29.1375 49.1625 26.7187C50.2875 24.3 51.2438 21.9375 51.9188 19.6312ZM47.4188 3.76874C48.0375 3.76874 48.5438 3.88124 49.05 4.16249C50.9063 5.23124 51.5813 8.60624 50.7938 13.4437C50.625 14.4 50.4 15.4125 50.175 16.4812C47.8125 15.975 45.2813 15.5812 42.6375 15.3C41.1188 13.1062 39.4875 11.1375 37.8563 9.39374C41.2313 6.07499 44.6625 3.76874 47.4188 3.76874ZM39.15 15.075C38.1375 15.0187 37.0688 15.0187 36 15.0187C34.9313 15.0187 33.8625 15.0187 32.85 15.075C33.8625 13.725 34.9313 12.4875 36 11.3062C37.0688 12.4875 38.1375 13.7812 39.15 15.075ZM23.0063 4.16249C23.4563 3.88124 24.0188 3.76874 24.6375 3.76874C27.3938 3.76874 30.825 6.01874 34.2 9.39374C32.5688 11.1375 30.9938 13.1062 29.4188 15.3C26.775 15.525 24.2438 15.9187 21.8813 16.4812C21.6 15.4687 21.4313 14.4562 21.2625 13.4437C20.475 8.66249 21.0938 5.28749 23.0063 4.16249ZM20.0813 33.8062C13.7813 32.0062 10.0125 29.25 10.0125 26.7187C10.0125 24.525 12.6 22.3312 17.1563 20.5875C18.0563 20.25 19.0688 19.9125 20.0813 19.6312C20.8125 21.9375 21.7125 24.3 22.8375 26.7187C21.7125 29.1375 20.7563 31.5562 20.0813 33.8062ZM21.2625 39.9937C21.4313 39.0375 21.6563 38.025 21.8813 36.9562C24.2438 37.4625 26.775 37.8562 29.4188 38.1375C30.9375 40.3312 32.5688 42.3 34.2 44.0437C30.825 47.3625 27.3938 49.6687 24.6375 49.6687C24.0188 49.6687 23.5125 49.5562 23.0063 49.275C21.0938 48.2062 20.475 44.775 21.2625 39.9937ZM18.9 63.1687C20.1375 61.65 20.1938 59.9625 19.5188 58.275C18.8438 56.5875 17.4375 55.8 15.6938 55.7437C13.6125 55.6875 11.475 55.7437 9.39377 55.7437H9.00002V70.3125H10.6875V64.8H13.3313C13.6688 64.8 13.95 64.9125 14.1188 65.1937L17.4938 70.425C17.55 70.5375 17.7188 70.7062 17.8313 70.7062H20.025C18.675 68.625 17.3813 66.6562 16.0313 64.6312C17.2125 64.4625 18.225 64.0687 18.9 63.1687ZM10.6875 63.0562V57.4875H11.3063C12.6 57.4875 13.95 57.4312 15.2438 57.5437C16.7625 57.6 17.8313 58.7812 17.8313 60.3C17.8313 61.8187 16.5938 63 15.075 63.0562C13.725 63.1125 12.375 63.0562 10.6875 63.0562ZM32.4563 63.7875C31.5563 59.85 27.9563 58.8375 25.2 60.075C23.0625 61.0312 22.1063 62.8875 22.05 65.1937C21.9938 66.9375 22.5 68.5125 23.85 69.6937C25.3688 71.0437 27.225 71.2125 29.1375 70.875C30.2063 70.65 31.1625 70.1437 31.8938 69.3562C31.6125 68.9625 31.3313 68.5687 31.05 68.2312C29.475 69.5812 27.7313 70.0312 25.8188 69.1312C24.5813 68.5125 23.9625 66.9937 23.85 65.8687H32.5688V65.1375C32.625 64.6312 32.5688 64.1812 32.4563 63.7875ZM23.9625 64.6875C23.7938 63 25.4813 61.2 27.3375 61.2C29.475 61.1437 30.825 62.4375 30.8813 64.6875H23.9625ZM41.2313 59.7937C40.3875 59.625 39.4875 59.5687 38.6438 59.625C37.2938 59.7375 36.1125 60.3562 35.1563 61.3687C35.4375 61.7625 35.6625 62.1562 36 62.6062C36.1125 62.4937 36.225 62.3812 36.3375 62.325C37.2375 61.4812 38.3063 61.0312 39.6 61.1437C40.6125 61.2 41.5688 61.5375 41.85 62.55C42.075 63.3375 42.0188 64.1812 42.075 65.025C41.9063 65.025 41.85 64.9687 41.7938 64.9125C40.4438 63.7875 38.925 63.5625 37.2938 63.9562C35.775 64.35 34.8188 65.5312 34.7063 67.05C34.5938 68.7937 35.3813 70.0875 36.9 70.7062C37.8563 71.1 38.925 71.1 39.9375 70.875C40.725 70.7062 41.0625 70.2562 42.1875 69.6375V70.3687H43.7625C43.7625 68.1187 43.8188 65.3625 43.7625 62.775C43.7625 61.1437 42.8063 60.1312 41.2313 59.7937ZM42.0188 66.8812C41.9625 67.05 42.0188 67.2188 42.0188 67.3875C42.0188 68.5687 41.7375 68.9625 40.6125 69.4125C39.825 69.6937 38.9813 69.8062 38.1375 69.525C37.1813 69.2437 36.5063 68.4 36.5063 67.4437C36.45 66.4875 37.0688 65.5312 38.025 65.25C39.3188 64.8 40.5 65.0812 41.5688 65.8687C41.9063 66.15 42.1313 66.4312 42.0188 66.8812ZM50.7938 61.3125C52.2563 60.8625 53.6063 61.1437 54.6188 62.3812L54.7875 62.4937C55.1813 62.1562 55.5188 61.8187 55.9688 61.425C55.8 61.2562 55.7438 61.1437 55.6313 60.975C54 59.2312 50.7938 59.0062 48.825 60.4125C46.0688 62.4375 46.125 66.375 47.475 68.4562C48.7688 70.425 50.625 71.1 52.8188 70.8187C54.1125 70.65 55.1813 70.0312 56.025 68.9625C55.6313 68.625 55.2375 68.2875 54.8438 67.8937C54.7313 68.0062 54.675 68.0625 54.6188 68.175C53.1 69.8625 50.5688 69.6937 49.2188 67.8937C48.4313 66.825 48.2625 65.5875 48.4875 64.35C48.6 62.9437 49.3313 61.8187 50.7938 61.3125ZM62.4938 68.9625C62.3813 69.0187 62.325 69.075 62.325 69.075C61.875 69.4125 61.425 69.4687 60.9188 69.3C60.4125 69.075 60.3563 68.625 60.3 68.175V61.7625C60.3 61.65 60.3 61.875 60.3563 61.3125H62.4938V59.625H60.2438V56.8125H58.5563V59.85H57.0938C56.9813 59.85 56.8125 59.9625 56.8125 60.075C56.7563 60.4687 56.8125 60.75 56.8125 61.3125H58.6125V68.5125C58.6125 69.4125 58.8375 70.2 59.625 70.65C60.4688 71.1562 62.1 71.0437 62.8313 70.425C62.9438 70.3687 63 70.1437 63 70.0875C62.8313 69.75 62.6625 69.3562 62.4938 68.9625Z" fill="#61DAFB"/>
</svg>
