<svg width="72" height="72" viewBox="0 0 72 72" fill="none" xmlns="http://www.w3.org/2000/svg">
<g clip-path="url(#clip0_19_94)">
<path d="M36.0001 0C26.4002 0 20.4 7.97938 18.0001 23.9377C21.6001 15.9583 25.8 12.9661 30.6001 14.961C33.3386 16.099 35.2961 19.4021 37.4628 23.0578C40.9925 29.0137 45.0774 35.9065 54.0001 35.9065C63.6 35.9065 69.6002 27.9271 72.0001 11.9688C68.4001 19.9482 64.2002 22.9404 59.4001 20.9455C56.6615 19.8075 54.704 16.5044 52.5373 12.8487C49.0076 6.89283 44.9227 0 36.0001 0ZM18.0001 35.9065C8.40016 35.9065 2.39997 43.8859 6.10352e-05 59.8442C3.60006 51.8648 7.79997 48.8726 12.6001 50.8675C15.3386 52.0055 17.2961 55.3086 19.4628 58.9643C22.9925 64.9202 27.0774 71.813 36.0001 71.813C45.6 71.813 51.6002 63.8336 54.0001 47.8753C50.4001 55.8547 46.2002 58.8469 41.4001 56.8519C38.6615 55.714 36.704 52.4109 34.5373 48.7552C31.0076 42.7993 26.9227 35.9065 18.0001 35.9065Z" fill="url(#paint0_linear_19_94)"/>
</g>
<defs>
<linearGradient id="paint0_linear_19_94" x1="-200.016" y1="2298.02" x2="7195.88" y2="4863.28" gradientUnits="userSpaceOnUse">
<stop stop-color="#2298BD"/>
<stop offset="1" stop-color="#0ED7B5"/>
</linearGradient>
<clipPath id="clip0_19_94">
<rect width="72" height="72" fill="white"/>
</clipPath>
</defs>
</svg>
