<svg width="32" height="32" viewBox="0 0 32 32" fill="none" xmlns="http://www.w3.org/2000/svg">
<g clip-path="url(#clip0_30_173)">
<path d="M16 16C16 8.89099 26.667 8.89099 26.667 16C26.667 23.109 16 23.109 16 16ZM5.33303 26.667C5.33264 25.9665 5.47031 25.2729 5.73818 24.6257C6.00605 23.9785 6.39886 23.3904 6.89415 22.8951C7.38945 22.3998 7.97751 22.007 8.62471 21.7391C9.27192 21.4713 9.96558 21.3336 10.666 21.334H15.999V26.667C15.999 33.776 5.33203 33.776 5.33203 26.667H5.33303ZM16 -6.2352e-06V10.667H21.333C28.442 10.667 28.442 -6.2352e-06 21.333 -6.2352e-06H16ZM5.33303 5.33299C5.33264 6.03344 5.47031 6.7271 5.73818 7.37431C6.00605 8.02152 6.39886 8.60958 6.89415 9.10487C7.38945 9.60017 7.97751 9.99298 8.62471 10.2608C9.27192 10.5287 9.96558 10.6664 10.666 10.666H15.999V-0.00100624H10.666C9.96558 -0.0014006 9.27192 0.136272 8.62471 0.404141C7.97751 0.67201 7.38945 1.06482 6.89415 1.56011C6.39886 2.05541 6.00605 2.64347 5.73818 3.29068C5.47031 3.93788 5.33264 4.63154 5.33303 5.33199V5.33299ZM5.33303 16C5.33264 16.7004 5.47031 17.3941 5.73818 18.0413C6.00605 18.6885 6.39886 19.2766 6.89415 19.7719C7.38945 20.2672 7.97751 20.66 8.62471 20.9278C9.27192 21.1957 9.96558 21.3344 10.666 21.334H15.999V10.666H10.666C9.96558 10.6656 9.27192 10.8033 8.62471 11.0711C7.97751 11.339 7.38945 11.7318 6.89415 12.2271C6.39886 12.7224 6.00605 13.3105 5.73818 13.9577C5.47031 14.6049 5.33264 15.2985 5.33303 15.999V16Z" fill="#F8F8F8"/>
</g>
<defs>
<clipPath id="clip0_30_173">
<rect width="32" height="32" fill="white"/>
</clipPath>
</defs>
</svg>
