<svg width="28" height="28" viewBox="0 0 28 28" fill="none" xmlns="http://www.w3.org/2000/svg">
<path fill-rule="evenodd" clip-rule="evenodd" d="M6.59078 1.36617C11.5151 0.820327 16.4848 0.820327 21.4091 1.36617C24.0994 1.6665 26.2683 3.78442 26.5842 6.48458C27.1682 11.4778 27.1682 16.5222 26.5842 21.5154C26.2683 24.2156 24.0994 26.3335 21.4105 26.6353C16.4857 27.1812 11.5156 27.1812 6.59078 26.6353C3.90053 26.3335 1.73162 24.2156 1.4157 21.5168C0.831648 16.5231 0.831648 11.4783 1.4157 6.48458C1.73162 3.78442 3.90053 1.6665 6.59078 1.36617ZM21.0833 5.5C20.7076 5.5 20.3472 5.64926 20.0815 5.91493C19.8159 6.18061 19.6666 6.54094 19.6666 6.91667C19.6666 7.29239 19.8159 7.65273 20.0815 7.9184C20.3472 8.18408 20.7076 8.33333 21.0833 8.33333C21.459 8.33333 21.8193 8.18408 22.085 7.9184C22.3507 7.65273 22.5 7.29239 22.5 6.91667C22.5 6.54094 22.3507 6.18061 22.085 5.91493C21.8193 5.64926 21.459 5.5 21.0833 5.5ZM7.27078 14C7.27078 12.2153 7.97975 10.5037 9.24171 9.24176C10.5037 7.9798 12.2153 7.27083 14 7.27083C15.7846 7.27083 17.4962 7.9798 18.7582 9.24176C20.0202 10.5037 20.7291 12.2153 20.7291 14C20.7291 15.7847 20.0202 17.4963 18.7582 18.7582C17.4962 20.0202 15.7846 20.7292 14 20.7292C12.2153 20.7292 10.5037 20.0202 9.24171 18.7582C7.97975 17.4963 7.27078 15.7847 7.27078 14Z" fill="#F8F8F8"/>
</svg>
