<svg width="34" height="34" viewBox="0 0 34 34" fill="none" xmlns="http://www.w3.org/2000/svg">
<path d="M24.0488 17C24.0488 15.844 23.9493 14.722 23.8166 13.6H29.4224C29.6878 14.688 29.8537 15.827 29.8537 17C29.8537 17.629 29.8039 18.241 29.721 18.836C30.8654 19.006 31.9268 19.38 32.9054 19.924C33.0712 18.972 33.1707 18.003 33.1707 17C33.1707 7.65 25.7073 0 16.5854 0C7.41366 0 0 7.65 0 17C0 26.35 7.46341 34 16.5854 34C17.5639 34 18.5093 33.898 19.438 33.728C18.6503 32.2472 18.2396 30.5867 18.2439 28.9C18.2439 28.407 18.2937 27.931 18.36 27.455C17.8293 28.526 17.2488 29.563 16.5854 30.532C15.2088 28.492 14.0976 26.231 13.4176 23.8H19.5873C20.5834 22.0258 22.0813 20.6031 23.8829 19.72C23.9824 18.819 24.0488 17.918 24.0488 17ZM16.5854 3.451C17.962 5.491 19.0732 7.769 19.7532 10.2H13.4176C14.0976 7.769 15.2088 5.491 16.5854 3.451ZM3.74829 20.4C3.48293 19.312 3.31707 18.173 3.31707 17C3.31707 15.827 3.48293 14.688 3.74829 13.6H9.35415C9.22146 14.722 9.12195 15.844 9.12195 17C9.12195 18.156 9.22146 19.278 9.35415 20.4H3.74829ZM5.10829 23.8H9.95122C10.5317 25.925 11.278 27.965 12.2732 29.852C9.25235 28.7838 6.70853 26.6351 5.10829 23.8ZM9.95122 10.2H5.10829C6.69859 7.35627 9.246 5.20453 12.2732 4.148C11.278 6.035 10.5317 8.075 9.95122 10.2ZM20.4663 20.4H12.7044C12.5385 19.278 12.439 18.156 12.439 17C12.439 15.844 12.5385 14.705 12.7044 13.6H20.4663C20.6156 14.705 20.7317 15.844 20.7317 17C20.7317 18.156 20.6156 19.278 20.4663 20.4ZM20.881 4.148C23.9327 5.219 26.4702 7.378 28.0624 10.2H23.1698C22.6507 8.09448 21.882 6.06202 20.881 4.148ZM34 25.925L26.122 34L21.561 28.9L23.4849 26.928L26.122 29.631L32.0761 23.528L34 25.925Z" fill="white"/>
</svg>
